<svg width="30" height="30" viewBox="0 0 30 30" fill="none" xmlns="http://www.w3.org/2000/svg">
<rect width="30" height="30" rx="2" fill="black"/>
<g clip-path="url(#clip0_121_143)">
<path d="M10.3423 5.87743C11.7741 7.30927 11.342 9.19882 9.91019 10.6307C8.47836 12.0625 6.58881 12.4945 5.15697 11.0627C3.72514 9.63088 3.67258 6.49771 4.72492 5.44538C5.77725 4.39304 8.91042 4.4456 10.3423 5.87743Z" fill="#CCD6DD"/>
<path d="M9.31356 6.72991C10.2681 7.68446 9.83606 8.80035 8.88151 9.75491C7.92695 10.7095 6.81106 11.1415 5.85651 10.187C4.90195 9.23241 4.9924 6.72991 5.42506 6.29785C5.85773 5.8658 8.35962 5.77535 9.31356 6.72991Z" fill="#66757F"/>
<path d="M19.6578 5.87743C18.226 7.30927 18.658 9.19882 20.0899 10.6307C21.5217 12.0625 23.4113 12.4945 24.8431 11.0627C26.2749 9.63088 26.3275 6.49771 25.2751 5.44538C24.2228 4.39304 21.0896 4.4456 19.6578 5.87743Z" fill="#CCD6DD"/>
<path d="M20.6863 6.72991C19.7317 7.68446 20.1638 8.80035 21.1183 9.75491C22.0729 10.7095 23.1888 11.1415 24.1433 10.187C25.0979 9.23241 25.0074 6.72991 24.5754 6.29785C24.1427 5.8658 21.6402 5.77535 20.6863 6.72991Z" fill="#66757F"/>
<path d="M24.7882 13.1666C24.7882 13.1666 25.3993 5.22217 15.0104 5.22217C4.51275 5.22217 5.23264 12.5555 5.23264 12.5555C5.23264 20.4999 11.9549 24.1666 15.0104 24.1666C18.066 24.1666 24.7882 21.1111 24.7882 13.1666Z" fill="#E1E8ED"/>
<path d="M15.0001 24.7778C16.3501 24.7778 17.4446 23.6834 17.4446 22.3334C17.4446 20.9833 16.3501 19.8889 15.0001 19.8889C13.6501 19.8889 12.5557 20.9833 12.5557 22.3334C12.5557 23.6834 13.6501 24.7778 15.0001 24.7778Z" fill="#DD2E44"/>
<path d="M14.9999 13.1667C11.9444 13.1667 10.7222 19.0866 10.7222 21.1112C10.7222 23.1358 11.9444 25.389 14.9999 25.389C18.0555 25.389 19.2777 23.1358 19.2777 21.1112C19.2777 19.0866 18.0555 13.1667 14.9999 13.1667Z" fill="#CCD6DD"/>
<path d="M12.9095 18.8489C11.7771 19.5456 13.6061 22.3334 15.0001 22.3334C16.394 22.3334 18.2237 19.5456 17.0907 18.8489C15.9583 18.1516 14.0419 18.1516 12.9095 18.8489Z" fill="#272B2B"/>
<path d="M13.7778 23.5555C13.7778 23.5555 13.8359 24.7777 15.0581 24.7777C16.2803 24.7777 16.3384 23.5555 16.3384 23.5555C16.3384 23.5555 15.0581 23.652 15.0581 22.3333C15.0581 22.9444 13.7778 23.5555 13.7778 23.5555Z" fill="#DD2E44"/>
<path d="M13.7778 23.8612C12.7432 23.8612 12.3087 23.1285 12.291 23.0973C12.2706 23.0625 12.2573 23.0241 12.2518 22.9842C12.2464 22.9442 12.2489 22.9036 12.2592 22.8647C12.2695 22.8257 12.2874 22.7892 12.3119 22.7572C12.3363 22.7252 12.3669 22.6983 12.4018 22.6782C12.4367 22.658 12.4752 22.645 12.5152 22.6398C12.5552 22.6346 12.5957 22.6373 12.6346 22.6479C12.6735 22.6585 12.7099 22.6766 12.7418 22.7013C12.7736 22.726 12.8003 22.7567 12.8202 22.7918C12.83 22.8076 13.1068 23.2501 13.7778 23.2501C14.5796 23.2501 14.6865 22.4013 14.6957 22.3047C14.7057 22.2251 14.7456 22.1524 14.8074 22.1013C14.8692 22.0502 14.9481 22.0246 15.0281 22.0297C15.1085 22.0371 15.1827 22.0761 15.2344 22.138C15.2862 22.2 15.3113 22.2799 15.3044 22.3603C15.2579 22.8798 14.8796 23.8612 13.7778 23.8612Z" fill="#292F33"/>
<path d="M16.2223 23.8612C15.1205 23.8612 14.7422 22.8798 14.6958 22.3603C14.6886 22.2796 14.7139 22.1994 14.7659 22.1372C14.8179 22.0751 14.8925 22.0362 14.9732 22.0291C15.1449 22.0224 15.2904 22.1385 15.3044 22.3065C15.3136 22.4013 15.4205 23.2501 16.2223 23.2501C16.8933 23.2501 17.1702 22.8076 17.1812 22.7887C17.2231 22.7199 17.2904 22.6703 17.3686 22.6505C17.4467 22.6307 17.5295 22.6424 17.5992 22.683C17.7434 22.7685 17.7929 22.9519 17.7092 23.0973C17.6908 23.1285 17.2563 23.8612 16.2223 23.8612Z" fill="#292F33"/>
<path d="M19.5833 15.6112C19.0792 15.6112 18.6667 15.1987 18.6667 14.6945V14.0834C18.6667 13.5792 19.0792 13.1667 19.5833 13.1667C20.0875 13.1667 20.5 13.5792 20.5 14.0834V14.6945C20.5 15.1987 20.0875 15.6112 19.5833 15.6112ZM10.4167 15.6112C9.9125 15.6112 9.5 15.1987 9.5 14.6945V14.0834C9.5 13.5792 9.9125 13.1667 10.4167 13.1667C10.9208 13.1667 11.3333 13.5792 11.3333 14.0834V14.6945C11.3333 15.1987 10.9208 15.6112 10.4167 15.6112Z" fill="#272B2B"/>
</g>
<defs>
<clipPath id="clip0_121_143">
<rect width="22" height="22" fill="white" transform="translate(4 4)"/>
</clipPath>
</defs>
</svg>
