<svg width="63" height="29" viewBox="0 0 63 29" fill="none" xmlns="http://www.w3.org/2000/svg">
<rect x="0.25" y="0.25" width="62.5" height="28.5" rx="14.25" fill="url(#paint0_linear_121_83)"/>
<rect x="0.25" y="0.25" width="62.5" height="28.5" rx="14.25" stroke="url(#paint1_linear_121_83)" stroke-width="0.5"/>
<path d="M7.95088 20.1005L6.82788 7.5H19.1719L18.0474 20.0985L12.9924 21.5L7.95088 20.1005Z" fill="#1572B6"/>
<path d="M13 20.429L17.085 19.2965L18.046 8.53052H13V20.429Z" fill="#33A9DC"/>
<path d="M13 13.0955H15.045L15.186 11.513H13V9.96753H16.875L16.838 10.382L16.4585 14.641H13V13.0955Z" fill="white"/>
<path d="M13.0096 17.1091L13.0026 17.1111L11.2816 16.6461L11.1716 15.4136H9.62012L9.83662 17.8401L13.0021 18.7191L13.0096 18.7171V17.1091Z" fill="#EBEBEB"/>
<path d="M14.9134 14.5754L14.7274 16.6449L13.0039 17.1099V18.7179L16.1719 17.8399L16.1954 17.5789L16.4639 14.5754H14.9134Z" fill="white"/>
<path d="M13.0055 9.96753V11.513H9.27253L9.24153 11.1655L9.17103 10.382L9.13403 9.96753H13.0055ZM13 13.0955V14.641H11.3005L11.2695 14.2935L11.1995 13.51L11.1625 13.0955H13Z" fill="#EBEBEB"/>
<path d="M35.9432 12.1477H34.1705C34.1023 11.7689 33.9754 11.4356 33.7898 11.1477C33.6042 10.8598 33.3769 10.6155 33.108 10.4148C32.839 10.214 32.5379 10.0625 32.2045 9.96023C31.875 9.85795 31.5246 9.80682 31.1534 9.80682C30.483 9.80682 29.8826 9.97538 29.3523 10.3125C28.8258 10.6496 28.4091 11.1439 28.1023 11.7955C27.7992 12.447 27.6477 13.2424 27.6477 14.1818C27.6477 15.1288 27.7992 15.928 28.1023 16.5795C28.4091 17.2311 28.8277 17.7235 29.358 18.0568C29.8883 18.3902 30.4848 18.5568 31.1477 18.5568C31.5152 18.5568 31.8636 18.5076 32.1932 18.4091C32.5265 18.3068 32.8277 18.1572 33.0966 17.9602C33.3655 17.7633 33.5928 17.5227 33.7784 17.2386C33.9678 16.9508 34.0985 16.6212 34.1705 16.25L35.9432 16.2557C35.8485 16.8277 35.6648 17.3542 35.392 17.8352C35.1231 18.3125 34.7765 18.7254 34.3523 19.0739C33.9318 19.4186 33.4508 19.6856 32.9091 19.875C32.3674 20.0644 31.7765 20.1591 31.1364 20.1591C30.1288 20.1591 29.2311 19.9205 28.4432 19.4432C27.6553 18.9621 27.0341 18.2746 26.5795 17.3807C26.1288 16.4867 25.9034 15.4205 25.9034 14.1818C25.9034 12.9394 26.1307 11.8731 26.5852 10.983C27.0398 10.089 27.661 9.40341 28.4489 8.92614C29.2367 8.44508 30.1326 8.20455 31.1364 8.20455C31.7538 8.20455 32.3295 8.29356 32.8636 8.47159C33.4015 8.64583 33.8845 8.90341 34.3125 9.24432C34.7405 9.58144 35.0947 9.99432 35.375 10.483C35.6553 10.9678 35.8447 11.5227 35.9432 12.1477ZM44.3906 11.4205C44.33 10.8826 44.08 10.4659 43.6406 10.1705C43.2012 9.87121 42.6482 9.72159 41.9815 9.72159C41.5043 9.72159 41.0914 9.79735 40.7429 9.94886C40.3944 10.0966 40.1236 10.3011 39.9304 10.5625C39.741 10.8201 39.6463 11.1136 39.6463 11.4432C39.6463 11.7197 39.7107 11.9583 39.8395 12.1591C39.9721 12.3598 40.1444 12.5284 40.3565 12.6648C40.5724 12.7973 40.8035 12.9091 41.0497 13C41.2959 13.0871 41.5327 13.1591 41.7599 13.2159L42.8963 13.5114C43.2675 13.6023 43.6482 13.7254 44.0384 13.8807C44.4285 14.036 44.7902 14.2405 45.1236 14.4943C45.4569 14.7481 45.7259 15.0625 45.9304 15.4375C46.1387 15.8125 46.2429 16.2614 46.2429 16.7841C46.2429 17.4432 46.0724 18.0284 45.7315 18.5398C45.3944 19.0511 44.9039 19.4545 44.2599 19.75C43.6198 20.0455 42.8452 20.1932 41.9361 20.1932C41.0649 20.1932 40.3111 20.0549 39.6747 19.7784C39.0384 19.5019 38.5402 19.1098 38.1804 18.6023C37.8205 18.0909 37.6217 17.4848 37.5838 16.7841H39.3452C39.3793 17.2045 39.5156 17.5549 39.7543 17.8352C39.9967 18.1117 40.3054 18.3182 40.6804 18.4545C41.0592 18.5871 41.474 18.6534 41.9247 18.6534C42.4209 18.6534 42.8622 18.5758 43.2486 18.4205C43.6387 18.2614 43.9455 18.0417 44.169 17.7614C44.3925 17.4773 44.5043 17.1458 44.5043 16.767C44.5043 16.4223 44.4058 16.1402 44.2088 15.9205C44.0156 15.7008 43.7524 15.5189 43.419 15.375C43.0895 15.2311 42.7164 15.1042 42.2997 14.9943L40.9247 14.6193C39.9929 14.3655 39.2543 13.9924 38.7088 13.5C38.1671 13.0076 37.8963 12.3561 37.8963 11.5455C37.8963 10.875 38.0781 10.2898 38.4418 9.78977C38.8054 9.28977 39.2978 8.90151 39.919 8.625C40.5402 8.3447 41.241 8.20455 42.0213 8.20455C42.8092 8.20455 43.5043 8.3428 44.1065 8.61932C44.7126 8.89583 45.1899 9.27652 45.5384 9.76136C45.8868 10.2424 46.0687 10.7955 46.0838 11.4205H44.3906ZM54.6875 11.4205C54.6269 10.8826 54.3769 10.4659 53.9375 10.1705C53.4981 9.87121 52.9451 9.72159 52.2784 9.72159C51.8011 9.72159 51.3883 9.79735 51.0398 9.94886C50.6913 10.0966 50.4205 10.3011 50.2273 10.5625C50.0379 10.8201 49.9432 11.1136 49.9432 11.4432C49.9432 11.7197 50.0076 11.9583 50.1364 12.1591C50.2689 12.3598 50.4413 12.5284 50.6534 12.6648C50.8693 12.7973 51.1004 12.9091 51.3466 13C51.5928 13.0871 51.8295 13.1591 52.0568 13.2159L53.1932 13.5114C53.5644 13.6023 53.9451 13.7254 54.3352 13.8807C54.7254 14.036 55.0871 14.2405 55.4205 14.4943C55.7538 14.7481 56.0227 15.0625 56.2273 15.4375C56.4356 15.8125 56.5398 16.2614 56.5398 16.7841C56.5398 17.4432 56.3693 18.0284 56.0284 18.5398C55.6913 19.0511 55.2008 19.4545 54.5568 19.75C53.9167 20.0455 53.142 20.1932 52.233 20.1932C51.3617 20.1932 50.608 20.0549 49.9716 19.7784C49.3352 19.5019 48.8371 19.1098 48.4773 18.6023C48.1174 18.0909 47.9186 17.4848 47.8807 16.7841H49.642C49.6761 17.2045 49.8125 17.5549 50.0511 17.8352C50.2936 18.1117 50.6023 18.3182 50.9773 18.4545C51.3561 18.5871 51.7708 18.6534 52.2216 18.6534C52.7178 18.6534 53.1591 18.5758 53.5455 18.4205C53.9356 18.2614 54.2424 18.0417 54.4659 17.7614C54.6894 17.4773 54.8011 17.1458 54.8011 16.767C54.8011 16.4223 54.7027 16.1402 54.5057 15.9205C54.3125 15.7008 54.0492 15.5189 53.7159 15.375C53.3864 15.2311 53.0133 15.1042 52.5966 14.9943L51.2216 14.6193C50.2898 14.3655 49.5511 13.9924 49.0057 13.5C48.464 13.0076 48.1932 12.3561 48.1932 11.5455C48.1932 10.875 48.375 10.2898 48.7386 9.78977C49.1023 9.28977 49.5947 8.90151 50.2159 8.625C50.8371 8.3447 51.5379 8.20455 52.3182 8.20455C53.1061 8.20455 53.8011 8.3428 54.4034 8.61932C55.0095 8.89583 55.4867 9.27652 55.8352 9.76136C56.1837 10.2424 56.3655 10.7955 56.3807 11.4205H54.6875Z" fill="white"/>
<defs>
<linearGradient id="paint0_linear_121_83" x1="0" y1="14.5" x2="63" y2="14.5" gradientUnits="userSpaceOnUse">
<stop stop-color="#007ACC" stop-opacity="0.32"/>
<stop offset="1" stop-color="#999999" stop-opacity="0"/>
</linearGradient>
<linearGradient id="paint1_linear_121_83" x1="0" y1="14.5" x2="63" y2="14.5" gradientUnits="userSpaceOnUse">
<stop stop-color="#84C3FF"/>
<stop offset="1" stop-color="white" stop-opacity="0.06"/>
</linearGradient>
</defs>
</svg>
