<svg width="89" height="29" viewBox="0 0 89 29" fill="none" xmlns="http://www.w3.org/2000/svg">
<rect x="0.25" y="0.25" width="88.5" height="28.5" rx="14.25" fill="url(#paint0_linear_122_144)"/>
<rect x="0.25" y="0.25" width="88.5" height="28.5" rx="14.25" stroke="url(#paint1_linear_122_144)" stroke-width="0.5"/>
<g clip-path="url(#clip0_122_144)">
<path d="M18.5535 9.31856C17.5042 8.82761 16.3941 8.47876 15.2526 8.28125C15.1104 8.53831 14.9443 8.88406 14.8297 9.15912C13.599 8.97404 12.3796 8.97404 11.1714 9.15912C11.0569 8.88412 10.8871 8.53831 10.7436 8.28125C9.60093 8.47885 8.48991 8.82858 7.44012 9.32113C5.35112 12.4779 4.78481 15.5562 5.06793 18.591C6.4535 19.6257 7.79625 20.2543 9.11637 20.6656C9.44448 20.2144 9.7345 19.7367 9.98343 19.2375C9.50945 19.0571 9.05251 18.8347 8.61806 18.573C8.73238 18.4882 8.84402 18.3999 8.95281 18.3082C11.5854 19.5396 14.4459 19.5396 17.0472 18.3082C17.1564 18.3993 17.268 18.4876 17.3819 18.573C16.9467 18.8354 16.4889 19.0582 16.014 19.2388C16.2644 19.7401 16.5539 20.2182 16.8811 20.6668C18.2024 20.2556 19.5464 19.627 20.932 18.591C21.2642 15.073 20.3645 12.0229 18.5535 9.31856ZM10.3421 16.7247C9.55181 16.7247 8.90368 15.9869 8.90368 15.0884C8.90368 14.19 9.538 13.4509 10.3421 13.4509C11.1462 13.4509 11.7944 14.1887 11.7806 15.0884C11.7818 15.9869 11.1463 16.7247 10.3421 16.7247ZM15.6578 16.7247C14.8675 16.7247 14.2194 15.9869 14.2194 15.0884C14.2194 14.19 14.8537 13.4509 15.6578 13.4509C16.462 13.4509 17.1101 14.1887 17.0962 15.0884C17.0962 15.9869 16.462 16.7247 15.6578 16.7247Z" fill="#5865F2"/>
</g>
<path d="M30.0455 20H26.2784V8.36364H30.1648C31.3049 8.36364 32.2841 8.59659 33.1023 9.0625C33.9205 9.52462 34.5473 10.1894 34.983 11.0568C35.4223 11.9205 35.642 12.9564 35.642 14.1648C35.642 15.3769 35.4205 16.4186 34.9773 17.2898C34.5379 18.161 33.9015 18.8314 33.0682 19.3011C32.2348 19.767 31.2273 20 30.0455 20ZM28.0341 18.4659H29.9489C30.8352 18.4659 31.572 18.2992 32.1591 17.9659C32.7462 17.6288 33.1856 17.142 33.4773 16.5057C33.7689 15.8655 33.9148 15.0852 33.9148 14.1648C33.9148 13.2519 33.7689 12.4773 33.4773 11.8409C33.1894 11.2045 32.7595 10.7216 32.1875 10.392C31.6155 10.0625 30.9053 9.89773 30.0568 9.89773H28.0341V18.4659ZM37.6889 20V11.2727H39.3878V20H37.6889ZM38.5469 9.92614C38.2514 9.92614 37.9976 9.82765 37.7855 9.63068C37.5772 9.42992 37.473 9.19129 37.473 8.91477C37.473 8.63447 37.5772 8.39583 37.7855 8.19886C37.9976 7.99811 38.2514 7.89773 38.5469 7.89773C38.8423 7.89773 39.0942 7.99811 39.3026 8.19886C39.5147 8.39583 39.6207 8.63447 39.6207 8.91477C39.6207 9.19129 39.5147 9.42992 39.3026 9.63068C39.0942 9.82765 38.8423 9.92614 38.5469 9.92614ZM48.2131 13.4034L46.6733 13.6761C46.6089 13.4792 46.5066 13.2917 46.3665 13.1136C46.2301 12.9356 46.0445 12.7898 45.8097 12.6761C45.5748 12.5625 45.2813 12.5057 44.929 12.5057C44.4479 12.5057 44.0464 12.6136 43.7244 12.8295C43.4025 13.0417 43.2415 13.3163 43.2415 13.6534C43.2415 13.9451 43.3494 14.1799 43.5653 14.358C43.7813 14.536 44.1297 14.6818 44.6108 14.7955L45.9972 15.1136C46.8002 15.2992 47.3987 15.5852 47.7926 15.9716C48.1866 16.358 48.3835 16.8598 48.3835 17.4773C48.3835 18 48.232 18.4659 47.929 18.875C47.6297 19.2803 47.2112 19.5985 46.6733 19.8295C46.1392 20.0606 45.5199 20.1761 44.8153 20.1761C43.8381 20.1761 43.0407 19.9678 42.4233 19.5511C41.8059 19.1307 41.4271 18.5341 41.2869 17.7614L42.929 17.5114C43.0313 17.9394 43.2415 18.2633 43.5597 18.483C43.8778 18.6989 44.2926 18.8068 44.804 18.8068C45.3608 18.8068 45.8059 18.6913 46.1392 18.4602C46.4725 18.2254 46.6392 17.9394 46.6392 17.6023C46.6392 17.3295 46.5369 17.1004 46.3324 16.9148C46.1316 16.7292 45.8229 16.589 45.4062 16.4943L43.929 16.1705C43.1146 15.9848 42.5123 15.6894 42.1222 15.2841C41.7358 14.8788 41.5426 14.3655 41.5426 13.7443C41.5426 13.2292 41.6866 12.7784 41.9744 12.392C42.2623 12.0057 42.66 11.7045 43.1676 11.4886C43.6752 11.2689 44.2566 11.1591 44.9119 11.1591C45.8551 11.1591 46.5975 11.3636 47.1392 11.7727C47.6809 12.178 48.0388 12.7216 48.2131 13.4034ZM53.9276 20.1761C53.0829 20.1761 52.3556 19.9848 51.7457 19.6023C51.1397 19.2159 50.6738 18.6837 50.348 18.0057C50.0223 17.3277 49.8594 16.5511 49.8594 15.6761C49.8594 14.7898 50.026 14.0076 50.3594 13.3295C50.6927 12.6477 51.1624 12.1155 51.7685 11.733C52.3745 11.3504 53.0885 11.1591 53.9105 11.1591C54.5734 11.1591 55.1643 11.2822 55.6832 11.5284C56.2022 11.7708 56.6207 12.1117 56.9389 12.5511C57.2609 12.9905 57.4522 13.5038 57.5128 14.0909H55.8594C55.7685 13.6818 55.5601 13.3295 55.2344 13.0341C54.9124 12.7386 54.4806 12.5909 53.9389 12.5909C53.4654 12.5909 53.0507 12.7159 52.6946 12.9659C52.3423 13.2121 52.0677 13.5644 51.8707 14.0227C51.6738 14.4773 51.5753 15.0152 51.5753 15.6364C51.5753 16.2727 51.6719 16.822 51.8651 17.2841C52.0582 17.7462 52.331 18.1042 52.6832 18.358C53.0393 18.6117 53.4579 18.7386 53.9389 18.7386C54.2609 18.7386 54.5526 18.6799 54.8139 18.5625C55.0791 18.4413 55.3007 18.2689 55.4787 18.0455C55.6605 17.822 55.7874 17.553 55.8594 17.2386H57.5128C57.4522 17.803 57.2685 18.3068 56.9616 18.75C56.6548 19.1932 56.2438 19.5417 55.7287 19.7955C55.2173 20.0492 54.617 20.1761 53.9276 20.1761ZM63.0057 20.1761C62.1875 20.1761 61.4735 19.9886 60.8636 19.6136C60.2538 19.2386 59.7803 18.714 59.4432 18.0398C59.1061 17.3655 58.9375 16.5777 58.9375 15.6761C58.9375 14.7708 59.1061 13.9792 59.4432 13.3011C59.7803 12.6231 60.2538 12.0966 60.8636 11.7216C61.4735 11.3466 62.1875 11.1591 63.0057 11.1591C63.8239 11.1591 64.5379 11.3466 65.1477 11.7216C65.7576 12.0966 66.2311 12.6231 66.5682 13.3011C66.9053 13.9792 67.0739 14.7708 67.0739 15.6761C67.0739 16.5777 66.9053 17.3655 66.5682 18.0398C66.2311 18.714 65.7576 19.2386 65.1477 19.6136C64.5379 19.9886 63.8239 20.1761 63.0057 20.1761ZM63.0114 18.75C63.5417 18.75 63.9811 18.6098 64.3295 18.3295C64.678 18.0492 64.9356 17.6761 65.1023 17.2102C65.2727 16.7443 65.358 16.2311 65.358 15.6705C65.358 15.1136 65.2727 14.6023 65.1023 14.1364C64.9356 13.6667 64.678 13.2898 64.3295 13.0057C63.9811 12.7216 63.5417 12.5795 63.0114 12.5795C62.4773 12.5795 62.0341 12.7216 61.6818 13.0057C61.3333 13.2898 61.0739 13.6667 60.9034 14.1364C60.7367 14.6023 60.6534 15.1136 60.6534 15.6705C60.6534 16.2311 60.7367 16.7443 60.9034 17.2102C61.0739 17.6761 61.3333 18.0492 61.6818 18.3295C62.0341 18.6098 62.4773 18.75 63.0114 18.75ZM68.9702 20V11.2727H70.6122V12.6591H70.7031C70.8622 12.1894 71.1425 11.8201 71.544 11.5511C71.9493 11.2784 72.4077 11.142 72.919 11.142C73.0251 11.142 73.1501 11.1458 73.294 11.1534C73.4418 11.161 73.5573 11.1705 73.6406 11.1818V12.8068C73.5724 12.7879 73.4512 12.767 73.277 12.7443C73.1027 12.7178 72.9285 12.7045 72.7543 12.7045C72.3527 12.7045 71.9948 12.7898 71.6804 12.9602C71.3698 13.1269 71.1236 13.3598 70.9418 13.6591C70.7599 13.9545 70.669 14.2917 70.669 14.6705V20H68.9702ZM78.0653 20.1705C77.3608 20.1705 76.732 19.9905 76.179 19.6307C75.6297 19.267 75.1979 18.75 74.8835 18.0795C74.5729 17.4053 74.4176 16.5966 74.4176 15.6534C74.4176 14.7102 74.5748 13.9034 74.8892 13.233C75.2074 12.5625 75.643 12.0492 76.196 11.6932C76.7491 11.3371 77.3759 11.1591 78.0767 11.1591C78.6184 11.1591 79.054 11.25 79.3835 11.4318C79.7169 11.6098 79.9744 11.8182 80.1562 12.0568C80.3419 12.2955 80.4858 12.5057 80.5881 12.6875H80.6903V8.36364H82.3892V20H80.7301V18.642H80.5881C80.4858 18.8277 80.3381 19.0398 80.1449 19.2784C79.9555 19.517 79.6941 19.7254 79.3608 19.9034C79.0275 20.0814 78.5956 20.1705 78.0653 20.1705ZM78.4403 18.7216C78.929 18.7216 79.3419 18.5928 79.679 18.3352C80.0199 18.0739 80.2775 17.7121 80.4517 17.25C80.6297 16.7879 80.7188 16.25 80.7188 15.6364C80.7188 15.0303 80.6316 14.5 80.4574 14.0455C80.2831 13.5909 80.0275 13.2367 79.6903 12.983C79.3532 12.7292 78.9366 12.6023 78.4403 12.6023C77.929 12.6023 77.5028 12.7348 77.1619 13C76.821 13.2652 76.5634 13.6269 76.3892 14.0852C76.2188 14.5436 76.1335 15.0606 76.1335 15.6364C76.1335 16.2197 76.2206 16.7443 76.3949 17.2102C76.5691 17.6761 76.8267 18.0455 77.1676 18.3182C77.5123 18.5871 77.9366 18.7216 78.4403 18.7216Z" fill="white"/>
<defs>
<linearGradient id="paint0_linear_122_144" x1="0" y1="14.5" x2="89" y2="14.5" gradientUnits="userSpaceOnUse">
<stop stop-color="#858FFF" stop-opacity="0.32"/>
<stop offset="1" stop-color="#999999" stop-opacity="0"/>
</linearGradient>
<linearGradient id="paint1_linear_122_144" x1="0" y1="14.5" x2="89" y2="14.5" gradientUnits="userSpaceOnUse">
<stop stop-color="#727EFF"/>
<stop offset="1" stop-color="white" stop-opacity="0.06"/>
</linearGradient>
<clipPath id="clip0_122_144">
<rect width="16" height="12.4375" fill="white" transform="translate(5 8.28125)"/>
</clipPath>
</defs>
</svg>
