<svg width="122" height="29" viewBox="0 0 122 29" fill="none" xmlns="http://www.w3.org/2000/svg">
<rect x="0.25" y="0.25" width="121.5" height="28.5" rx="14.25" fill="url(#paint0_linear_125_30)"/>
<rect x="0.25" y="0.25" width="121.5" height="28.5" rx="14.25" stroke="url(#paint1_linear_125_30)" stroke-width="0.5"/>
<g clip-path="url(#clip0_125_30)">
<path d="M12.877 10.5593H19.7693V13.3491H12.877V10.5593Z" fill="white"/>
<path d="M6.641 19.6669C6.034 19.6669 5.50519 19.3365 5.22131 18.8464C5.07634 19.0956 4.99998 19.3787 5 19.6669C5 20.5732 5.73469 21.3079 6.641 21.3079H8.28206V19.6669H6.641Z" fill="#3ECC5F"/>
<path d="M14.024 11.0004L19.7692 10.6414V9.82082C19.7692 8.91451 19.0345 8.17982 18.1282 8.17982H10.7436L10.5385 7.82451C10.4472 7.66657 10.2193 7.66657 10.1282 7.82451L9.92308 8.17982L9.71796 7.82451C9.62671 7.66657 9.39883 7.66657 9.30771 7.82451L9.10258 8.17982L8.89746 7.82451C8.80621 7.66657 8.57833 7.66657 8.48721 7.82451L8.28202 8.17982L8.27671 8.18007L7.93683 7.84026C7.80796 7.71138 7.58789 7.77026 7.54058 7.94651L7.42839 8.36526L7.00227 8.25101C6.82614 8.20388 6.66496 8.36501 6.71227 8.5412L6.82639 8.96726L6.40764 9.07945C6.23152 9.1267 6.17252 9.34682 6.30139 9.4757L6.64121 9.81557L6.64102 9.82082L6.28564 10.0259C6.12777 10.1171 6.12777 10.3451 6.28564 10.4362L6.64102 10.6414L6.28564 10.8465C6.12777 10.9376 6.12777 11.1656 6.28564 11.2568L6.64102 11.4619L6.28564 11.667C6.12777 11.7581 6.12777 11.9861 6.28564 12.0773L6.64102 12.2824L6.28564 12.4875C6.12777 12.5787 6.12777 12.8066 6.28564 12.8978L6.64102 13.1029L6.28564 13.308C6.12777 13.3992 6.12777 13.6271 6.28564 13.7183L6.64102 13.9234L6.28564 14.1285C6.12777 14.2197 6.12777 14.4476 6.28564 14.5388L6.64102 14.7439L6.28564 14.9491C6.12777 15.0402 6.12777 15.2681 6.28564 15.3593L6.64102 15.5644L6.28564 15.7696C6.12777 15.8607 6.12777 16.0886 6.28564 16.1798L6.64102 16.3849L6.28564 16.5901C6.12777 16.6813 6.12777 16.9092 6.28564 17.0003L6.64102 17.2054L6.28564 17.4106C6.12777 17.5018 6.12777 17.7297 6.28564 17.8208L6.64102 18.0259L6.28564 18.2311C6.12777 18.3223 6.12777 18.5502 6.28564 18.6414L6.64102 18.8465L6.28564 19.0516C6.12777 19.1428 6.12777 19.3707 6.28564 19.4619L6.64102 19.667C6.64102 20.5733 7.37571 21.308 8.28202 21.308H18.1282C19.0345 21.308 19.7692 20.5733 19.7692 19.667V13.1029L14.024 12.7438C13.5637 12.7151 13.2051 12.3333 13.2051 11.8721C13.2051 11.4109 13.5637 11.0292 14.024 11.0004Z" fill="#3ECC5F"/>
<path d="M16.4873 21.3079H18.9488V18.0259H16.4873V21.3079Z" fill="#3ECC5F"/>
<path d="M20.5897 19.2568C20.5717 19.2568 20.5546 19.2598 20.5372 19.262C20.5341 19.2497 20.5312 19.2373 20.5277 19.225C20.6152 19.1885 20.6874 19.1228 20.7319 19.0391C20.7765 18.9554 20.7906 18.8589 20.772 18.7659C20.7534 18.673 20.7031 18.5893 20.6298 18.5292C20.5565 18.4691 20.4646 18.4363 20.3698 18.4363C20.2764 18.4363 20.1913 18.4688 20.1223 18.5213C20.1132 18.512 20.1041 18.5028 20.0948 18.4937C20.1484 18.4232 20.1776 18.3372 20.1778 18.2487C20.1779 18.1541 20.1452 18.0624 20.0854 17.9891C20.0256 17.9158 19.9423 17.8655 19.8497 17.8466C19.757 17.8276 19.6606 17.8413 19.5769 17.8853C19.4932 17.9293 19.4272 18.0008 19.3902 18.0878C19.378 18.0844 19.3658 18.0816 19.3537 18.0785C19.3559 18.0611 19.3589 18.044 19.3589 18.026C19.3589 17.9721 19.3483 17.9187 19.3277 17.869C19.3071 17.8192 19.2769 17.7739 19.2388 17.7358C19.2007 17.6977 19.1554 17.6675 19.1056 17.6469C19.0559 17.6263 19.0025 17.6157 18.9486 17.6157C18.8947 17.6157 18.8414 17.6263 18.7916 17.6469C18.7418 17.6675 18.6966 17.6978 18.6585 17.7359C18.6204 17.774 18.5902 17.8192 18.5696 17.869C18.549 17.9187 18.5384 17.9721 18.5384 18.026C18.5384 18.044 18.5414 18.0611 18.5436 18.0785C18.5315 18.0816 18.5192 18.0844 18.5071 18.0878C18.4701 18.0008 18.4041 17.9293 18.3204 17.8853C18.2367 17.8413 18.1403 17.8276 18.0477 17.8466C17.955 17.8655 17.8717 17.9158 17.8119 17.9891C17.7521 18.0623 17.7195 18.154 17.7195 18.2486C17.7195 18.3409 17.7511 18.4251 17.8025 18.4937C17.4975 18.7917 17.3076 19.207 17.3076 19.667C17.3076 20.5733 18.0423 21.308 18.9486 21.308C19.7149 21.308 20.3566 20.7821 20.5372 20.072C20.5546 20.0742 20.5717 20.0773 20.5897 20.0773C20.6436 20.0773 20.6969 20.0667 20.7467 20.0461C20.7965 20.0255 20.8417 19.9952 20.8798 19.9571C20.9179 19.919 20.9481 19.8738 20.9687 19.824C20.9893 19.7743 20.9999 19.7209 20.9999 19.667C20.9999 19.6132 20.9893 19.5598 20.9687 19.51C20.9481 19.4603 20.9179 19.415 20.8798 19.3769C20.8417 19.3388 20.7965 19.3086 20.7467 19.288C20.6969 19.2674 20.6436 19.2568 20.5897 19.2568Z" fill="#44D860"/>
<path d="M17.3076 16.3849H19.7692V14.7439H17.3076V16.3849Z" fill="#3ECC5F"/>
<path d="M20.5898 15.7695C20.6167 15.7695 20.6434 15.7642 20.6683 15.7539C20.6932 15.7435 20.7158 15.7284 20.7348 15.7094C20.7539 15.6903 20.769 15.6677 20.7793 15.6428C20.7896 15.618 20.7949 15.5913 20.7949 15.5643C20.7949 15.5374 20.7896 15.5107 20.7793 15.4858C20.769 15.461 20.7539 15.4383 20.7348 15.4193C20.7158 15.4002 20.6932 15.3851 20.6683 15.3748C20.6434 15.3645 20.6167 15.3592 20.5898 15.3592C20.5809 15.3592 20.5722 15.3608 20.5636 15.3618C20.562 15.3557 20.5606 15.3495 20.5589 15.3433C20.6025 15.325 20.6385 15.2921 20.6607 15.2503C20.6829 15.2085 20.6899 15.1603 20.6806 15.1139C20.6713 15.0674 20.6462 15.0256 20.6097 14.9956C20.5731 14.9655 20.5272 14.9491 20.4799 14.949C20.4332 14.949 20.3905 14.9651 20.3561 14.9915C20.3516 14.9868 20.347 14.9822 20.3424 14.9777C20.3692 14.9425 20.3838 14.8994 20.3839 14.8551C20.3839 14.8078 20.3675 14.762 20.3376 14.7253C20.3077 14.6887 20.2661 14.6635 20.2197 14.654C20.1734 14.6446 20.1252 14.6514 20.0834 14.6734C20.0415 14.6954 20.0085 14.7312 19.99 14.7747C19.9182 14.7543 19.8439 14.7439 19.7693 14.7438C19.3162 14.7438 18.9487 15.1112 18.9487 15.5643C18.9487 16.0175 19.3162 16.3848 19.7693 16.3848C19.8459 16.3848 19.9197 16.3735 19.99 16.3539C20.0085 16.3974 20.0415 16.4332 20.0833 16.4552C20.1252 16.4772 20.1734 16.484 20.2197 16.4746C20.266 16.4651 20.3077 16.44 20.3376 16.4033C20.3675 16.3667 20.3839 16.3209 20.3839 16.2736C20.3839 16.2273 20.3681 16.1852 20.3423 16.151C20.347 16.1465 20.3516 16.1419 20.3561 16.1372C20.3905 16.1635 20.4332 16.1797 20.4799 16.1797C20.5272 16.1797 20.5732 16.1633 20.6098 16.1332C20.6464 16.1032 20.6716 16.0613 20.6809 16.0149C20.6902 15.9684 20.6831 15.9202 20.6609 15.8783C20.6386 15.8365 20.6026 15.8036 20.5589 15.7853C20.5606 15.7792 20.562 15.773 20.5636 15.7668C20.5722 15.7679 20.5809 15.7695 20.5898 15.7695Z" fill="#44D860"/>
<path d="M9.92309 10.8465C9.89614 10.8465 9.86946 10.8412 9.84456 10.8309C9.81965 10.8206 9.79703 10.8055 9.77797 10.7865C9.75891 10.7674 9.7438 10.7448 9.73349 10.7199C9.72318 10.695 9.71789 10.6683 9.7179 10.6413C9.7179 10.302 9.4419 10.0259 9.10253 10.0259C8.76315 10.0259 8.48715 10.302 8.48715 10.6413C8.48715 10.6958 8.46554 10.7479 8.42707 10.7864C8.38861 10.8249 8.33643 10.8465 8.28203 10.8465C8.22763 10.8465 8.17545 10.8249 8.13698 10.7864C8.09852 10.7479 8.0769 10.6958 8.0769 10.6413C8.0769 10.0757 8.5369 9.61572 9.10253 9.61572C9.66815 9.61572 10.1282 10.0757 10.1282 10.6413C10.1282 10.6683 10.1229 10.695 10.1126 10.7199C10.1023 10.7448 10.0872 10.7674 10.0681 10.7864C10.0491 10.8055 10.0264 10.8206 10.0015 10.8309C9.97665 10.8412 9.95003 10.8465 9.92309 10.8465Z" fill="black"/>
<path d="M13.2051 21.308H18.1282C19.0345 21.308 19.7692 20.5733 19.7692 19.667V13.9233H14.8461C13.9398 13.9233 13.2051 14.658 13.2051 15.5644V21.308Z" fill="#FFFF50"/>
<path d="M18.5402 16.4669H14.4344C14.4126 16.4669 14.3918 16.4583 14.3764 16.4429C14.361 16.4275 14.3523 16.4066 14.3523 16.3849C14.3523 16.3631 14.361 16.3422 14.3764 16.3268C14.3918 16.3114 14.4126 16.3028 14.4344 16.3028H18.5402C18.5619 16.3028 18.5828 16.3114 18.5982 16.3268C18.6136 16.3422 18.6222 16.3631 18.6222 16.3849C18.6222 16.4066 18.6136 16.4275 18.5982 16.4429C18.5828 16.4583 18.5619 16.4669 18.5402 16.4669ZM18.5402 18.1079H14.4344C14.4126 18.1079 14.3918 18.0993 14.3764 18.0839C14.361 18.0685 14.3524 18.0476 14.3524 18.0259C14.3524 18.0041 14.361 17.9833 14.3764 17.9679C14.3918 17.9525 14.4126 17.9439 14.4344 17.9439H18.5402C18.5619 17.9439 18.5828 17.9525 18.5982 17.9679C18.6135 17.9833 18.6222 18.0041 18.6222 18.0259C18.6222 18.0476 18.6135 18.0685 18.5982 18.0839C18.5828 18.0993 18.5619 18.1079 18.5402 18.1079ZM18.5402 19.749H14.4344C14.4126 19.749 14.3918 19.7403 14.3764 19.7249C14.361 19.7096 14.3523 19.6887 14.3523 19.6669C14.3523 19.6452 14.361 19.6243 14.3764 19.6089C14.3918 19.5935 14.4126 19.5849 14.4344 19.5849H18.5402C18.5619 19.5849 18.5828 19.5935 18.5982 19.6089C18.6136 19.6243 18.6222 19.6452 18.6222 19.6669C18.6222 19.6887 18.6136 19.7096 18.5982 19.7249C18.5828 19.7403 18.5619 19.749 18.5402 19.749ZM18.5402 15.6616H14.4344C14.4126 15.6616 14.3918 15.653 14.3764 15.6376C14.361 15.6222 14.3523 15.6013 14.3523 15.5795C14.3523 15.5578 14.361 15.5369 14.3764 15.5215C14.3918 15.5061 14.4126 15.4975 14.4344 15.4975H18.5402C18.5619 15.4975 18.5828 15.5061 18.5982 15.5215C18.6136 15.5369 18.6222 15.5578 18.6222 15.5795C18.6222 15.6013 18.6136 15.6222 18.5982 15.6376C18.5828 15.653 18.5619 15.6616 18.5402 15.6616ZM18.5402 17.2874H14.4344C14.4126 17.2874 14.3918 17.2788 14.3764 17.2634C14.361 17.248 14.3523 17.2271 14.3523 17.2054C14.3523 17.1836 14.361 17.1627 14.3764 17.1473C14.3918 17.1319 14.4126 17.1233 14.4344 17.1233H18.5402C18.5619 17.1233 18.5828 17.1319 18.5982 17.1473C18.6136 17.1627 18.6222 17.1836 18.6222 17.2054C18.6222 17.2271 18.6136 17.248 18.5982 17.2634C18.5828 17.2788 18.5619 17.2874 18.5402 17.2874ZM18.5402 18.9284H14.4344C14.4126 18.9284 14.3918 18.9198 14.3764 18.9044C14.361 18.889 14.3524 18.8681 14.3524 18.8464C14.3524 18.8246 14.361 18.8038 14.3764 18.7884C14.3918 18.773 14.4126 18.7644 14.4344 18.7644H18.5402C18.5619 18.7644 18.5828 18.773 18.5982 18.7884C18.6135 18.8038 18.6222 18.8246 18.6222 18.8464C18.6222 18.8681 18.6135 18.889 18.5982 18.9044C18.5828 18.9198 18.5619 18.9284 18.5402 18.9284ZM19.7693 11.3479C19.7683 11.3479 19.7675 11.3474 19.7665 11.3474C19.513 11.356 19.393 11.6097 19.2872 11.8334C19.1768 12.0672 19.0913 12.2193 18.9513 12.2147C18.7963 12.2091 18.7077 12.034 18.6138 11.8487C18.5061 11.6359 18.383 11.3945 18.1246 11.4035C17.8747 11.4121 17.7543 11.6328 17.6482 11.8275C17.5352 12.035 17.4583 12.161 17.31 12.1552C17.1519 12.1495 17.0678 12.0071 16.9707 11.8424C16.8622 11.6589 16.7369 11.4526 16.4836 11.4597C16.238 11.4681 16.1172 11.6554 16.0107 11.8207C15.8981 11.9955 15.8192 12.1019 15.669 12.0957C15.5071 12.0898 15.4235 11.9717 15.3267 11.835C15.2181 11.6812 15.0957 11.5074 14.843 11.5158C14.6028 11.524 14.4821 11.6774 14.3757 11.8127C14.2746 11.941 14.1957 12.0425 14.0287 12.0362C14.0071 12.0357 13.9863 12.0437 13.9706 12.0586C13.9549 12.0734 13.9457 12.0937 13.9449 12.1153C13.9441 12.1369 13.9518 12.1579 13.9664 12.1738C13.981 12.1897 14.0012 12.1992 14.0228 12.2003C14.2703 12.2085 14.3957 12.0525 14.5046 11.9142C14.6012 11.7914 14.6845 11.6854 14.8487 11.6799C15.0067 11.6732 15.0808 11.7714 15.1928 11.9297C15.2993 12.0802 15.42 12.2509 15.6631 12.2597C15.9177 12.2682 16.0402 12.0779 16.1487 11.9095C16.2457 11.759 16.3293 11.6292 16.4892 11.6237C16.6363 11.6182 16.7163 11.7345 16.8293 11.9257C16.9357 12.106 17.0562 12.3102 17.3041 12.3192C17.5605 12.3281 17.6843 12.1042 17.7922 11.9061C17.8857 11.7348 17.9739 11.5729 18.1302 11.5675C18.2773 11.5641 18.354 11.6984 18.4675 11.9229C18.5735 12.1324 18.6937 12.3696 18.9455 12.3787C18.9501 12.3789 18.9547 12.379 18.9593 12.379C19.2107 12.379 19.33 12.1267 19.4356 11.9035C19.5291 11.7058 19.6175 11.5195 19.7693 11.5119V11.3479Z" fill="black"/>
<path d="M11.5642 21.3079H14.8462V18.0259H11.5642V21.3079Z" fill="#3ECC5F"/>
<path d="M16.4871 19.2568C16.4691 19.2568 16.452 19.2598 16.4347 19.262C16.4316 19.2497 16.4286 19.2373 16.4252 19.225C16.5127 19.1885 16.5849 19.1228 16.6294 19.0391C16.6739 18.9554 16.6881 18.8589 16.6695 18.7659C16.6509 18.673 16.6006 18.5893 16.5273 18.5292C16.454 18.4691 16.3621 18.4363 16.2673 18.4363C16.1739 18.4363 16.0888 18.4688 16.0198 18.5213C16.0107 18.512 16.0015 18.5028 15.9923 18.4937C16.0459 18.4232 16.075 18.3372 16.0753 18.2487C16.0753 18.1541 16.0427 18.0624 15.9829 17.9891C15.9231 17.9158 15.8398 17.8655 15.7471 17.8466C15.6545 17.8276 15.5581 17.8413 15.4744 17.8853C15.3906 17.9293 15.3247 18.0008 15.2876 18.0878C15.2755 18.0844 15.2633 18.0816 15.2511 18.0785C15.2533 18.0611 15.2564 18.044 15.2564 18.026C15.2564 17.9721 15.2458 17.9187 15.2252 17.869C15.2046 17.8192 15.1743 17.7739 15.1362 17.7358C15.0981 17.6977 15.0529 17.6675 15.0031 17.6469C14.9533 17.6263 14.9 17.6157 14.8461 17.6157C14.7922 17.6157 14.7389 17.6263 14.6891 17.6469C14.6393 17.6675 14.5941 17.6978 14.556 17.7359C14.5179 17.774 14.4877 17.8192 14.467 17.869C14.4464 17.9187 14.4358 17.9721 14.4358 18.026C14.4358 18.044 14.4389 18.0611 14.4411 18.0785C14.429 18.0816 14.4167 18.0844 14.4046 18.0878C14.3675 18.0008 14.3016 17.9293 14.2179 17.8853C14.1341 17.8413 14.0378 17.8276 13.9451 17.8466C13.8525 17.8655 13.7692 17.9158 13.7094 17.9891C13.6496 18.0623 13.6169 18.154 13.617 18.2486C13.617 18.3409 13.6485 18.4251 13.7 18.4937C13.395 18.7917 13.2051 19.207 13.2051 19.667C13.2051 20.5733 13.9398 21.308 14.8461 21.308C15.6123 21.308 16.2541 20.7821 16.4347 20.072C16.452 20.0742 16.4691 20.0773 16.4871 20.0773C16.541 20.0773 16.5944 20.0667 16.6441 20.0461C16.6939 20.0255 16.7392 19.9952 16.7772 19.9571C16.8153 19.919 16.8456 19.8738 16.8662 19.824C16.8868 19.7743 16.8974 19.7209 16.8974 19.667C16.8974 19.6132 16.8868 19.5598 16.8662 19.51C16.8456 19.4603 16.8153 19.415 16.7772 19.3769C16.7392 19.3388 16.6939 19.3086 16.6441 19.288C16.5944 19.2674 16.541 19.2568 16.4871 19.2568Z" fill="#44D860"/>
<path d="M11.5642 16.3849H14.8462V14.7439H11.5642V16.3849Z" fill="#3ECC5F"/>
<path d="M15.6667 15.7696C15.6936 15.7696 15.7203 15.7643 15.7452 15.754C15.7701 15.7436 15.7927 15.7285 15.8117 15.7095C15.8308 15.6904 15.8459 15.6678 15.8562 15.6429C15.8665 15.6181 15.8718 15.5914 15.8718 15.5644C15.8718 15.5375 15.8665 15.5108 15.8562 15.4859C15.8459 15.4611 15.8308 15.4384 15.8117 15.4194C15.7927 15.4003 15.7701 15.3852 15.7452 15.3749C15.7203 15.3646 15.6936 15.3593 15.6667 15.3593C15.6578 15.3593 15.6491 15.3609 15.6404 15.3619C15.6389 15.3558 15.6374 15.3496 15.6358 15.3434C15.6794 15.3251 15.7154 15.2922 15.7376 15.2504C15.7598 15.2086 15.7668 15.1604 15.7575 15.1139C15.7482 15.0675 15.7231 15.0257 15.6865 14.9957C15.6499 14.9656 15.6041 14.9492 15.5567 14.9491C15.51 14.9491 15.4674 14.9652 15.4329 14.9916C15.4284 14.9869 15.4239 14.9823 15.4192 14.9778C15.446 14.9426 15.4606 14.8995 15.4607 14.8552C15.4607 14.8079 15.4443 14.7621 15.4144 14.7255C15.3845 14.6889 15.3429 14.6637 15.2966 14.6543C15.2503 14.6448 15.2021 14.6517 15.1603 14.6736C15.1184 14.6956 15.0854 14.7313 15.0669 14.7748C14.9951 14.7544 14.9208 14.744 14.8461 14.7439C14.3931 14.7439 14.0256 15.1113 14.0256 15.5644C14.0256 16.0176 14.3931 16.3849 14.8461 16.3849C14.9208 16.3848 14.9951 16.3744 15.0669 16.354C15.0854 16.3975 15.1184 16.4332 15.1603 16.4552C15.2021 16.4771 15.2503 16.484 15.2966 16.4745C15.3429 16.4651 15.3845 16.4399 15.4144 16.4033C15.4443 16.3668 15.4607 16.321 15.4607 16.2737C15.4606 16.2294 15.446 16.1863 15.4192 16.1511C15.4239 16.1466 15.4285 16.142 15.4329 16.1373C15.4674 16.1636 15.51 16.1798 15.5567 16.1798C15.6041 16.1798 15.65 16.1634 15.6867 16.1333C15.7233 16.1033 15.7484 16.0615 15.7578 16.015C15.7671 15.9685 15.76 15.9203 15.7378 15.8784C15.7155 15.8366 15.6795 15.8037 15.6358 15.7854L15.6405 15.7669C15.6491 15.768 15.6578 15.7696 15.6667 15.7696Z" fill="#44D860"/>
<path d="M16.4871 9.71832C16.474 9.71832 16.46 9.7167 16.4469 9.71426C16.4337 9.71169 16.4208 9.70784 16.4084 9.70276C16.396 9.6976 16.3842 9.69128 16.373 9.68388C16.362 9.67609 16.3516 9.66759 16.3417 9.65845C16.3329 9.64857 16.3238 9.63876 16.3164 9.62726C16.309 9.61611 16.3027 9.60431 16.2975 9.59201C16.2874 9.56698 16.2821 9.54026 16.282 9.51326C16.282 9.50013 16.2836 9.48613 16.286 9.47301C16.2885 9.45988 16.2926 9.44757 16.2975 9.43445C16.3025 9.42213 16.309 9.4107 16.3164 9.39913C16.3238 9.38851 16.3329 9.37788 16.3418 9.36801C16.3517 9.35895 16.3623 9.34988 16.373 9.34257C16.3953 9.32758 16.4205 9.31724 16.4469 9.3122C16.4734 9.30639 16.5008 9.30639 16.5273 9.3122C16.5404 9.3147 16.5535 9.31876 16.5659 9.3237C16.5781 9.32857 16.5896 9.33513 16.6012 9.34257C16.6118 9.34995 16.6224 9.35895 16.6324 9.36801C16.6414 9.37782 16.6504 9.38851 16.6578 9.39913C16.6652 9.41063 16.6717 9.42213 16.6766 9.43445C16.6816 9.44757 16.6857 9.45988 16.6881 9.47301C16.6905 9.48613 16.6922 9.50007 16.6922 9.5132C16.692 9.56758 16.6705 9.61971 16.6324 9.65845C16.6225 9.66759 16.6121 9.67609 16.6011 9.68388C16.59 9.69127 16.5782 9.69759 16.5659 9.70276C16.5534 9.7078 16.5405 9.71165 16.5273 9.71426C16.5142 9.71676 16.5002 9.71832 16.4871 9.71832ZM18.1281 9.61576C18.0737 9.61543 18.0216 9.59396 17.9828 9.55588C17.9737 9.54604 17.9652 9.53563 17.9575 9.5247C17.9501 9.51355 17.9437 9.50175 17.9385 9.48945C17.9284 9.46442 17.9231 9.43769 17.923 9.4107C17.923 9.35651 17.9452 9.30401 17.9828 9.26545C17.9928 9.25638 18.0033 9.24732 18.014 9.24001C18.0364 9.22502 18.0615 9.21469 18.0879 9.20963C18.1142 9.20388 18.142 9.20388 18.1684 9.20963C18.1814 9.21213 18.1946 9.2162 18.2069 9.22113C18.2191 9.22601 18.2307 9.23257 18.2422 9.24001C18.2528 9.24738 18.2634 9.25638 18.2734 9.26545C18.311 9.30401 18.3332 9.35651 18.3332 9.41063C18.3331 9.43766 18.3278 9.4644 18.3177 9.48945C18.3119 9.5017 18.3062 9.5132 18.2988 9.5247C18.2914 9.53532 18.2824 9.54601 18.2734 9.55588C18.2635 9.56503 18.2531 9.57352 18.2422 9.58132C18.231 9.58871 18.2192 9.59503 18.2069 9.6002C18.1945 9.60524 18.1815 9.60909 18.1684 9.6117C18.1552 9.61413 18.1412 9.61576 18.1281 9.61576Z" fill="black"/>
</g>
<path d="M30.0455 20H26.2784V8.36364H30.1648C31.3049 8.36364 32.2841 8.59659 33.1023 9.0625C33.9205 9.52462 34.5473 10.1894 34.983 11.0568C35.4223 11.9205 35.642 12.9564 35.642 14.1648C35.642 15.3769 35.4205 16.4186 34.9773 17.2898C34.5379 18.161 33.9015 18.8314 33.0682 19.3011C32.2348 19.767 31.2273 20 30.0455 20ZM28.0341 18.4659H29.9489C30.8352 18.4659 31.572 18.2992 32.1591 17.9659C32.7462 17.6288 33.1856 17.142 33.4773 16.5057C33.7689 15.8655 33.9148 15.0852 33.9148 14.1648C33.9148 13.2519 33.7689 12.4773 33.4773 11.8409C33.1894 11.2045 32.7595 10.7216 32.1875 10.392C31.6155 10.0625 30.9053 9.89773 30.0568 9.89773H28.0341V18.4659ZM41.3651 20.1761C40.5469 20.1761 39.8329 19.9886 39.223 19.6136C38.6132 19.2386 38.1397 18.714 37.8026 18.0398C37.4654 17.3655 37.2969 16.5777 37.2969 15.6761C37.2969 14.7708 37.4654 13.9792 37.8026 13.3011C38.1397 12.6231 38.6132 12.0966 39.223 11.7216C39.8329 11.3466 40.5469 11.1591 41.3651 11.1591C42.1832 11.1591 42.8973 11.3466 43.5071 11.7216C44.117 12.0966 44.5904 12.6231 44.9276 13.3011C45.2647 13.9792 45.4332 14.7708 45.4332 15.6761C45.4332 16.5777 45.2647 17.3655 44.9276 18.0398C44.5904 18.714 44.117 19.2386 43.5071 19.6136C42.8973 19.9886 42.1832 20.1761 41.3651 20.1761ZM41.3707 18.75C41.901 18.75 42.3404 18.6098 42.6889 18.3295C43.0374 18.0492 43.295 17.6761 43.4616 17.2102C43.6321 16.7443 43.7173 16.2311 43.7173 15.6705C43.7173 15.1136 43.6321 14.6023 43.4616 14.1364C43.295 13.6667 43.0374 13.2898 42.6889 13.0057C42.3404 12.7216 41.901 12.5795 41.3707 12.5795C40.8366 12.5795 40.3935 12.7216 40.0412 13.0057C39.6927 13.2898 39.4332 13.6667 39.2628 14.1364C39.0961 14.6023 39.0128 15.1136 39.0128 15.6705C39.0128 16.2311 39.0961 16.7443 39.2628 17.2102C39.4332 17.6761 39.6927 18.0492 40.0412 18.3295C40.3935 18.6098 40.8366 18.75 41.3707 18.75ZM51.0057 20.1761C50.161 20.1761 49.4337 19.9848 48.8239 19.6023C48.2178 19.2159 47.7519 18.6837 47.4261 18.0057C47.1004 17.3277 46.9375 16.5511 46.9375 15.6761C46.9375 14.7898 47.1042 14.0076 47.4375 13.3295C47.7708 12.6477 48.2405 12.1155 48.8466 11.733C49.4527 11.3504 50.1667 11.1591 50.9886 11.1591C51.6515 11.1591 52.2424 11.2822 52.7614 11.5284C53.2803 11.7708 53.6989 12.1117 54.017 12.5511C54.339 12.9905 54.5303 13.5038 54.5909 14.0909H52.9375C52.8466 13.6818 52.6383 13.3295 52.3125 13.0341C51.9905 12.7386 51.5587 12.5909 51.017 12.5909C50.5436 12.5909 50.1288 12.7159 49.7727 12.9659C49.4205 13.2121 49.1458 13.5644 48.9489 14.0227C48.7519 14.4773 48.6534 15.0152 48.6534 15.6364C48.6534 16.2727 48.75 16.822 48.9432 17.2841C49.1364 17.7462 49.4091 18.1042 49.7614 18.358C50.1174 18.6117 50.536 18.7386 51.017 18.7386C51.339 18.7386 51.6307 18.6799 51.892 18.5625C52.1572 18.4413 52.3788 18.2689 52.5568 18.0455C52.7386 17.822 52.8655 17.553 52.9375 17.2386H54.5909C54.5303 17.803 54.3466 18.3068 54.0398 18.75C53.733 19.1932 53.322 19.5417 52.8068 19.7955C52.2955 20.0492 51.6951 20.1761 51.0057 20.1761ZM61.9361 16.3807V11.2727H63.6406V20H61.9702V18.4886H61.8793C61.6785 18.9545 61.3565 19.3428 60.9134 19.6534C60.474 19.9602 59.9266 20.1136 59.2713 20.1136C58.7107 20.1136 58.2145 19.9905 57.7827 19.7443C57.3546 19.4943 57.0175 19.125 56.7713 18.6364C56.5289 18.1477 56.4077 17.5436 56.4077 16.8239V11.2727H58.1065V16.6193C58.1065 17.214 58.2713 17.6875 58.6009 18.0398C58.9304 18.392 59.3584 18.5682 59.8849 18.5682C60.2031 18.5682 60.5194 18.4886 60.8338 18.3295C61.152 18.1705 61.4152 17.9299 61.6236 17.608C61.8357 17.286 61.9399 16.8769 61.9361 16.3807ZM72.4631 13.4034L70.9233 13.6761C70.8589 13.4792 70.7566 13.2917 70.6165 13.1136C70.4801 12.9356 70.2945 12.7898 70.0597 12.6761C69.8248 12.5625 69.5313 12.5057 69.179 12.5057C68.6979 12.5057 68.2964 12.6136 67.9744 12.8295C67.6525 13.0417 67.4915 13.3163 67.4915 13.6534C67.4915 13.9451 67.5994 14.1799 67.8153 14.358C68.0313 14.536 68.3797 14.6818 68.8608 14.7955L70.2472 15.1136C71.0502 15.2992 71.6487 15.5852 72.0426 15.9716C72.4366 16.358 72.6335 16.8598 72.6335 17.4773C72.6335 18 72.482 18.4659 72.179 18.875C71.8797 19.2803 71.4612 19.5985 70.9233 19.8295C70.3892 20.0606 69.7699 20.1761 69.0653 20.1761C68.0881 20.1761 67.2907 19.9678 66.6733 19.5511C66.0559 19.1307 65.6771 18.5341 65.5369 17.7614L67.179 17.5114C67.2813 17.9394 67.4915 18.2633 67.8097 18.483C68.1278 18.6989 68.5426 18.8068 69.054 18.8068C69.6108 18.8068 70.0559 18.6913 70.3892 18.4602C70.7225 18.2254 70.8892 17.9394 70.8892 17.6023C70.8892 17.3295 70.7869 17.1004 70.5824 16.9148C70.3816 16.7292 70.0729 16.589 69.6562 16.4943L68.179 16.1705C67.3646 15.9848 66.7623 15.6894 66.3722 15.2841C65.9858 14.8788 65.7926 14.3655 65.7926 13.7443C65.7926 13.2292 65.9366 12.7784 66.2244 12.392C66.5123 12.0057 66.91 11.7045 67.4176 11.4886C67.9252 11.2689 68.5066 11.1591 69.1619 11.1591C70.1051 11.1591 70.8475 11.3636 71.3892 11.7727C71.9309 12.178 72.2888 12.7216 72.4631 13.4034ZM77.0412 20.1932C76.4882 20.1932 75.9882 20.0909 75.5412 19.8864C75.0942 19.678 74.7401 19.3769 74.4787 18.983C74.2211 18.589 74.0923 18.1061 74.0923 17.5341C74.0923 17.0417 74.187 16.6364 74.3764 16.3182C74.5658 16 74.8215 15.7481 75.1435 15.5625C75.4654 15.3769 75.8253 15.2367 76.223 15.142C76.6207 15.0473 77.026 14.9754 77.4389 14.9261C77.9616 14.8655 78.3859 14.8163 78.7116 14.7784C79.0374 14.7367 79.2741 14.6705 79.4219 14.5795C79.5696 14.4886 79.6435 14.3409 79.6435 14.1364V14.0966C79.6435 13.6004 79.5033 13.2159 79.223 12.9432C78.9465 12.6705 78.5336 12.5341 77.9844 12.5341C77.4124 12.5341 76.9616 12.661 76.6321 12.9148C76.3063 13.1648 76.081 13.4432 75.956 13.75L74.3594 13.3864C74.5488 12.8561 74.8253 12.428 75.1889 12.1023C75.5563 11.7727 75.9787 11.5341 76.456 11.3864C76.9332 11.2348 77.4351 11.1591 77.9616 11.1591C78.3101 11.1591 78.6795 11.2008 79.0696 11.2841C79.4635 11.3636 79.831 11.5114 80.1719 11.7273C80.5166 11.9432 80.7988 12.2519 81.0185 12.6534C81.2382 13.0511 81.348 13.5682 81.348 14.2045V20H79.6889V18.8068H79.6207C79.5109 19.0265 79.3461 19.2424 79.1264 19.4545C78.9067 19.6667 78.6245 19.8428 78.2798 19.983C77.9351 20.1231 77.5223 20.1932 77.0412 20.1932ZM77.4105 18.8295C77.8802 18.8295 78.2817 18.7367 78.6151 18.5511C78.9522 18.3655 79.2079 18.1231 79.3821 17.8239C79.5601 17.5208 79.6491 17.197 79.6491 16.8523V15.7273C79.5885 15.7879 79.4711 15.8447 79.2969 15.8977C79.1264 15.947 78.9313 15.9905 78.7116 16.0284C78.492 16.0625 78.2779 16.0947 78.0696 16.125C77.8613 16.1515 77.687 16.1742 77.5469 16.1932C77.2173 16.2348 76.9162 16.3049 76.6435 16.4034C76.3745 16.5019 76.1586 16.6439 75.9957 16.8295C75.8366 17.0114 75.7571 17.2538 75.7571 17.5568C75.7571 17.9773 75.9124 18.2955 76.223 18.5114C76.5336 18.7235 76.9295 18.8295 77.4105 18.8295ZM89.1392 16.3807V11.2727H90.8438V20H89.1733V18.4886H89.0824C88.8816 18.9545 88.5597 19.3428 88.1165 19.6534C87.6771 19.9602 87.1297 20.1136 86.4744 20.1136C85.9138 20.1136 85.4176 19.9905 84.9858 19.7443C84.5578 19.4943 84.2206 19.125 83.9744 18.6364C83.732 18.1477 83.6108 17.5436 83.6108 16.8239V11.2727H85.3097V16.6193C85.3097 17.214 85.4744 17.6875 85.804 18.0398C86.1335 18.392 86.5616 18.5682 87.0881 18.5682C87.4063 18.5682 87.7225 18.4886 88.0369 18.3295C88.3551 18.1705 88.6184 17.9299 88.8267 17.608C89.0388 17.286 89.143 16.8769 89.1392 16.3807ZM93.1264 20V11.2727H94.7685V12.6591H94.8594C95.0185 12.1894 95.2988 11.8201 95.7003 11.5511C96.1056 11.2784 96.5639 11.142 97.0753 11.142C97.1813 11.142 97.3063 11.1458 97.4503 11.1534C97.598 11.161 97.7135 11.1705 97.7969 11.1818V12.8068C97.7287 12.7879 97.6075 12.767 97.4332 12.7443C97.259 12.7178 97.0848 12.7045 96.9105 12.7045C96.509 12.7045 96.151 12.7898 95.8366 12.9602C95.526 13.1269 95.2798 13.3598 95.098 13.6591C94.9162 13.9545 94.8253 14.2917 94.8253 14.6705V20H93.1264ZM104.795 16.3807V11.2727H106.5V20H104.83V18.4886H104.739C104.538 18.9545 104.216 19.3428 103.773 19.6534C103.333 19.9602 102.786 20.1136 102.131 20.1136C101.57 20.1136 101.074 19.9905 100.642 19.7443C100.214 19.4943 99.8769 19.125 99.6307 18.6364C99.3883 18.1477 99.267 17.5436 99.267 16.8239V11.2727H100.966V16.6193C100.966 17.214 101.131 17.6875 101.46 18.0398C101.79 18.392 102.218 18.5682 102.744 18.5682C103.063 18.5682 103.379 18.4886 103.693 18.3295C104.011 18.1705 104.275 17.9299 104.483 17.608C104.695 17.286 104.799 16.8769 104.795 16.3807ZM115.322 13.4034L113.783 13.6761C113.718 13.4792 113.616 13.2917 113.476 13.1136C113.339 12.9356 113.154 12.7898 112.919 12.6761C112.684 12.5625 112.391 12.5057 112.038 12.5057C111.557 12.5057 111.156 12.6136 110.834 12.8295C110.512 13.0417 110.351 13.3163 110.351 13.6534C110.351 13.9451 110.459 14.1799 110.675 14.358C110.891 14.536 111.239 14.6818 111.72 14.7955L113.107 15.1136C113.91 15.2992 114.508 15.5852 114.902 15.9716C115.296 16.358 115.493 16.8598 115.493 17.4773C115.493 18 115.341 18.4659 115.038 18.875C114.739 19.2803 114.321 19.5985 113.783 19.8295C113.249 20.0606 112.629 20.1761 111.925 20.1761C110.947 20.1761 110.15 19.9678 109.533 19.5511C108.915 19.1307 108.536 18.5341 108.396 17.7614L110.038 17.5114C110.141 17.9394 110.351 18.2633 110.669 18.483C110.987 18.6989 111.402 18.8068 111.913 18.8068C112.47 18.8068 112.915 18.6913 113.249 18.4602C113.582 18.2254 113.749 17.9394 113.749 17.6023C113.749 17.3295 113.646 17.1004 113.442 16.9148C113.241 16.7292 112.932 16.589 112.516 16.4943L111.038 16.1705C110.224 15.9848 109.622 15.6894 109.232 15.2841C108.845 14.8788 108.652 14.3655 108.652 13.7443C108.652 13.2292 108.796 12.7784 109.084 12.392C109.372 12.0057 109.769 11.7045 110.277 11.4886C110.785 11.2689 111.366 11.1591 112.021 11.1591C112.964 11.1591 113.707 11.3636 114.249 11.7727C114.79 12.178 115.148 12.7216 115.322 13.4034Z" fill="white"/>
<defs>
<linearGradient id="paint0_linear_125_30" x1="0" y1="14.5" x2="122" y2="14.5" gradientUnits="userSpaceOnUse">
<stop stop-color="#3ECC5F" stop-opacity="0.32"/>
<stop offset="1" stop-color="#999999" stop-opacity="0"/>
</linearGradient>
<linearGradient id="paint1_linear_125_30" x1="0" y1="14.5" x2="122" y2="14.5" gradientUnits="userSpaceOnUse">
<stop stop-color="#3ECC5F"/>
<stop offset="1" stop-color="white" stop-opacity="0.06"/>
</linearGradient>
<clipPath id="clip0_125_30">
<rect width="16" height="13.625" fill="white" transform="translate(5 7.6875)"/>
</clipPath>
</defs>
</svg>
