<svg width="111" height="29" viewBox="0 0 111 29" fill="none" xmlns="http://www.w3.org/2000/svg">
<rect x="0.25" y="0.25" width="110.5" height="28.5" rx="14.25" fill="url(#paint0_linear_119_72)"/>
<rect x="0.25" y="0.25" width="110.5" height="28.5" rx="14.25" stroke="url(#paint1_linear_119_72)" stroke-width="0.5"/>
<g clip-path="url(#clip0_119_72)">
<path d="M5 6.5H21V22.5H5V6.5Z" fill="#F7DF1E"/>
<path d="M9.20709 19.8707L10.4315 19.1297C10.6677 19.5485 10.8826 19.9029 11.398 19.9029C11.8921 19.9029 12.2037 19.7096 12.2037 18.9579V13.8455H13.7072V18.9791C13.7072 20.5365 12.7943 21.2453 11.4625 21.2453C10.2597 21.2453 9.56147 20.6224 9.20703 19.8706M14.5239 19.7096L15.7482 19.0008C16.0705 19.5271 16.4893 19.9137 17.2303 19.9137C17.8534 19.9137 18.2507 19.6022 18.2507 19.1726C18.2507 18.6571 17.8425 18.4745 17.1552 18.1738L16.7793 18.0126C15.6945 17.5509 14.975 16.9709 14.975 15.7465C14.975 14.6188 15.8342 13.7595 17.1767 13.7595C18.1326 13.7595 18.82 14.0925 19.314 14.9625L18.1432 15.7143C17.8854 15.2525 17.6063 15.07 17.1767 15.07C16.7363 15.07 16.457 15.3492 16.457 15.7143C16.457 16.1654 16.7363 16.3481 17.3807 16.6273L17.7565 16.7884C19.0347 17.3362 19.7542 17.8946 19.7542 19.1511C19.7542 20.5045 18.691 21.2455 17.2625 21.2455C15.8663 21.2455 14.9642 20.5796 14.5238 19.7096" fill="black"/>
</g>
<path d="M30.8011 8.36364H32.5511V16.6136C32.5511 17.3598 32.4034 17.9981 32.108 18.5284C31.8163 19.0587 31.4053 19.464 30.875 19.7443C30.3447 20.0208 29.7235 20.1591 29.0114 20.1591C28.3561 20.1591 27.767 20.0398 27.2443 19.8011C26.7254 19.5625 26.3144 19.2159 26.0114 18.7614C25.7121 18.303 25.5625 17.7462 25.5625 17.0909H27.3068C27.3068 17.4129 27.3807 17.6913 27.5284 17.9261C27.6799 18.161 27.8864 18.3447 28.1477 18.4773C28.4129 18.6061 28.7159 18.6705 29.0568 18.6705C29.428 18.6705 29.7424 18.5928 30 18.4375C30.2614 18.2784 30.4602 18.0455 30.5966 17.7386C30.733 17.4318 30.8011 17.0568 30.8011 16.6136V8.36364ZM37.5099 20.1932C36.9569 20.1932 36.4569 20.0909 36.0099 19.8864C35.563 19.678 35.2088 19.3769 34.9474 18.983C34.6899 18.589 34.5611 18.1061 34.5611 17.5341C34.5611 17.0417 34.6558 16.6364 34.8452 16.3182C35.0346 16 35.2902 15.7481 35.6122 15.5625C35.9342 15.3769 36.294 15.2367 36.6918 15.142C37.0895 15.0473 37.4948 14.9754 37.9077 14.9261C38.4304 14.8655 38.8546 14.8163 39.1804 14.7784C39.5062 14.7367 39.7429 14.6705 39.8906 14.5795C40.0384 14.4886 40.1122 14.3409 40.1122 14.1364V14.0966C40.1122 13.6004 39.9721 13.2159 39.6918 12.9432C39.4152 12.6705 39.0024 12.5341 38.4531 12.5341C37.8812 12.5341 37.4304 12.661 37.1009 12.9148C36.7751 13.1648 36.5497 13.4432 36.4247 13.75L34.8281 13.3864C35.0175 12.8561 35.294 12.428 35.6577 12.1023C36.0251 11.7727 36.4474 11.5341 36.9247 11.3864C37.402 11.2348 37.9039 11.1591 38.4304 11.1591C38.7789 11.1591 39.1482 11.2008 39.5384 11.2841C39.9323 11.3636 40.2997 11.5114 40.6406 11.7273C40.9853 11.9432 41.2675 12.2519 41.4872 12.6534C41.7069 13.0511 41.8168 13.5682 41.8168 14.2045V20H40.1577V18.8068H40.0895C39.9796 19.0265 39.8149 19.2424 39.5952 19.4545C39.3755 19.6667 39.0933 19.8428 38.7486 19.983C38.4039 20.1231 37.991 20.1932 37.5099 20.1932ZM37.8793 18.8295C38.349 18.8295 38.7505 18.7367 39.0838 18.5511C39.4209 18.3655 39.6766 18.1231 39.8509 17.8239C40.0289 17.5208 40.1179 17.197 40.1179 16.8523V15.7273C40.0573 15.7879 39.9399 15.8447 39.7656 15.8977C39.5952 15.947 39.4001 15.9905 39.1804 16.0284C38.9607 16.0625 38.7467 16.0947 38.5384 16.125C38.33 16.1515 38.1558 16.1742 38.0156 16.1932C37.6861 16.2348 37.3849 16.3049 37.1122 16.4034C36.8433 16.5019 36.6274 16.6439 36.4645 16.8295C36.3054 17.0114 36.2259 17.2538 36.2259 17.5568C36.2259 17.9773 36.3812 18.2955 36.6918 18.5114C37.0024 18.7235 37.3982 18.8295 37.8793 18.8295ZM51.233 11.2727L48.0682 20H46.25L43.0795 11.2727H44.9034L47.1136 17.9886H47.2045L49.4091 11.2727H51.233ZM55.1193 20.1932C54.5663 20.1932 54.0663 20.0909 53.6193 19.8864C53.1723 19.678 52.8182 19.3769 52.5568 18.983C52.2992 18.589 52.1705 18.1061 52.1705 17.5341C52.1705 17.0417 52.2652 16.6364 52.4545 16.3182C52.6439 16 52.8996 15.7481 53.2216 15.5625C53.5436 15.3769 53.9034 15.2367 54.3011 15.142C54.6989 15.0473 55.1042 14.9754 55.517 14.9261C56.0398 14.8655 56.464 14.8163 56.7898 14.7784C57.1155 14.7367 57.3523 14.6705 57.5 14.5795C57.6477 14.4886 57.7216 14.3409 57.7216 14.1364V14.0966C57.7216 13.6004 57.5814 13.2159 57.3011 12.9432C57.0246 12.6705 56.6117 12.5341 56.0625 12.5341C55.4905 12.5341 55.0398 12.661 54.7102 12.9148C54.3845 13.1648 54.1591 13.4432 54.0341 13.75L52.4375 13.3864C52.6269 12.8561 52.9034 12.428 53.267 12.1023C53.6345 11.7727 54.0568 11.5341 54.5341 11.3864C55.0114 11.2348 55.5133 11.1591 56.0398 11.1591C56.3883 11.1591 56.7576 11.2008 57.1477 11.2841C57.5417 11.3636 57.9091 11.5114 58.25 11.7273C58.5947 11.9432 58.8769 12.2519 59.0966 12.6534C59.3163 13.0511 59.4261 13.5682 59.4261 14.2045V20H57.767V18.8068H57.6989C57.589 19.0265 57.4242 19.2424 57.2045 19.4545C56.9848 19.6667 56.7027 19.8428 56.358 19.983C56.0133 20.1231 55.6004 20.1932 55.1193 20.1932ZM55.4886 18.8295C55.9583 18.8295 56.3598 18.7367 56.6932 18.5511C57.0303 18.3655 57.286 18.1231 57.4602 17.8239C57.6383 17.5208 57.7273 17.197 57.7273 16.8523V15.7273C57.6667 15.7879 57.5492 15.8447 57.375 15.8977C57.2045 15.947 57.0095 15.9905 56.7898 16.0284C56.5701 16.0625 56.3561 16.0947 56.1477 16.125C55.9394 16.1515 55.7652 16.1742 55.625 16.1932C55.2955 16.2348 54.9943 16.3049 54.7216 16.4034C54.4527 16.5019 54.2367 16.6439 54.0739 16.8295C53.9148 17.0114 53.8352 17.2538 53.8352 17.5568C53.8352 17.9773 53.9905 18.2955 54.3011 18.5114C54.6117 18.7235 55.0076 18.8295 55.4886 18.8295ZM68.1719 11.4205C68.1113 10.8826 67.8613 10.4659 67.4219 10.1705C66.9825 9.87121 66.4295 9.72159 65.7628 9.72159C65.2855 9.72159 64.8726 9.79735 64.5241 9.94886C64.1757 10.0966 63.9048 10.3011 63.7116 10.5625C63.5223 10.8201 63.4276 11.1136 63.4276 11.4432C63.4276 11.7197 63.492 11.9583 63.6207 12.1591C63.7533 12.3598 63.9257 12.5284 64.1378 12.6648C64.3537 12.7973 64.5848 12.9091 64.831 13C65.0772 13.0871 65.3139 13.1591 65.5412 13.2159L66.6776 13.5114C67.0488 13.6023 67.4295 13.7254 67.8196 13.8807C68.2098 14.036 68.5715 14.2405 68.9048 14.4943C69.2382 14.7481 69.5071 15.0625 69.7116 15.4375C69.92 15.8125 70.0241 16.2614 70.0241 16.7841C70.0241 17.4432 69.8537 18.0284 69.5128 18.5398C69.1757 19.0511 68.6851 19.4545 68.0412 19.75C67.401 20.0455 66.6264 20.1932 65.7173 20.1932C64.8461 20.1932 64.0923 20.0549 63.456 19.7784C62.8196 19.5019 62.3215 19.1098 61.9616 18.6023C61.6018 18.0909 61.4029 17.4848 61.3651 16.7841H63.1264C63.1605 17.2045 63.2969 17.5549 63.5355 17.8352C63.7779 18.1117 64.0866 18.3182 64.4616 18.4545C64.8404 18.5871 65.2552 18.6534 65.706 18.6534C66.2022 18.6534 66.6435 18.5758 67.0298 18.4205C67.42 18.2614 67.7268 18.0417 67.9503 17.7614C68.1738 17.4773 68.2855 17.1458 68.2855 16.767C68.2855 16.4223 68.187 16.1402 67.9901 15.9205C67.7969 15.7008 67.5336 15.5189 67.2003 15.375C66.8707 15.2311 66.4976 15.1042 66.081 14.9943L64.706 14.6193C63.7741 14.3655 63.0355 13.9924 62.4901 13.5C61.9484 13.0076 61.6776 12.3561 61.6776 11.5455C61.6776 10.875 61.8594 10.2898 62.223 9.78977C62.5866 9.28977 63.0791 8.90151 63.7003 8.625C64.3215 8.3447 65.0223 8.20455 65.8026 8.20455C66.5904 8.20455 67.2855 8.3428 67.8878 8.61932C68.4938 8.89583 68.9711 9.27652 69.3196 9.76136C69.6681 10.2424 69.8499 10.7955 69.8651 11.4205H68.1719ZM75.6619 20.1761C74.8172 20.1761 74.09 19.9848 73.4801 19.6023C72.8741 19.2159 72.4081 18.6837 72.0824 18.0057C71.7566 17.3277 71.5938 16.5511 71.5938 15.6761C71.5938 14.7898 71.7604 14.0076 72.0938 13.3295C72.4271 12.6477 72.8968 12.1155 73.5028 11.733C74.1089 11.3504 74.8229 11.1591 75.6449 11.1591C76.3078 11.1591 76.8987 11.2822 77.4176 11.5284C77.9366 11.7708 78.3551 12.1117 78.6733 12.5511C78.9953 12.9905 79.1866 13.5038 79.2472 14.0909H77.5938C77.5028 13.6818 77.2945 13.3295 76.9688 13.0341C76.6468 12.7386 76.215 12.5909 75.6733 12.5909C75.1998 12.5909 74.785 12.7159 74.429 12.9659C74.0767 13.2121 73.8021 13.5644 73.6051 14.0227C73.4081 14.4773 73.3097 15.0152 73.3097 15.6364C73.3097 16.2727 73.4063 16.822 73.5994 17.2841C73.7926 17.7462 74.0653 18.1042 74.4176 18.358C74.7737 18.6117 75.1922 18.7386 75.6733 18.7386C75.9953 18.7386 76.2869 18.6799 76.5483 18.5625C76.8134 18.4413 77.035 18.2689 77.2131 18.0455C77.3949 17.822 77.5218 17.553 77.5938 17.2386H79.2472C79.1866 17.803 79.0028 18.3068 78.696 18.75C78.3892 19.1932 77.9782 19.5417 77.4631 19.7955C76.9517 20.0492 76.3513 20.1761 75.6619 20.1761ZM81.0639 20V11.2727H82.706V12.6591H82.7969C82.956 12.1894 83.2363 11.8201 83.6378 11.5511C84.0431 11.2784 84.5014 11.142 85.0128 11.142C85.1188 11.142 85.2438 11.1458 85.3878 11.1534C85.5355 11.161 85.651 11.1705 85.7344 11.1818V12.8068C85.6662 12.7879 85.545 12.767 85.3707 12.7443C85.1965 12.7178 85.0223 12.7045 84.848 12.7045C84.4465 12.7045 84.0885 12.7898 83.7741 12.9602C83.4635 13.1269 83.2173 13.3598 83.0355 13.6591C82.8537 13.9545 82.7628 14.2917 82.7628 14.6705V20H81.0639ZM87.2045 20V11.2727H88.9034V20H87.2045ZM88.0625 9.92614C87.767 9.92614 87.5133 9.82765 87.3011 9.63068C87.0928 9.42992 86.9886 9.19129 86.9886 8.91477C86.9886 8.63447 87.0928 8.39583 87.3011 8.19886C87.5133 7.99811 87.767 7.89773 88.0625 7.89773C88.358 7.89773 88.6098 7.99811 88.8182 8.19886C89.0303 8.39583 89.1364 8.63447 89.1364 8.91477C89.1364 9.19129 89.0303 9.42992 88.8182 9.63068C88.6098 9.82765 88.358 9.92614 88.0625 9.92614ZM91.1889 23.2727V11.2727H92.848V12.6875H92.9901C93.0885 12.5057 93.2306 12.2955 93.4162 12.0568C93.6018 11.8182 93.8594 11.6098 94.1889 11.4318C94.5185 11.25 94.9541 11.1591 95.4957 11.1591C96.2003 11.1591 96.8291 11.3371 97.3821 11.6932C97.9351 12.0492 98.3688 12.5625 98.6832 13.233C99.0014 13.9034 99.1605 14.7102 99.1605 15.6534C99.1605 16.5966 99.0033 17.4053 98.6889 18.0795C98.3745 18.75 97.9427 19.267 97.3935 19.6307C96.8442 19.9905 96.2173 20.1705 95.5128 20.1705C94.9825 20.1705 94.5488 20.0814 94.2116 19.9034C93.8783 19.7254 93.617 19.517 93.4276 19.2784C93.2382 19.0398 93.0923 18.8277 92.9901 18.642H92.8878V23.2727H91.1889ZM92.8537 15.6364C92.8537 16.25 92.9427 16.7879 93.1207 17.25C93.2988 17.7121 93.5563 18.0739 93.8935 18.3352C94.2306 18.5928 94.6435 18.7216 95.1321 18.7216C95.6397 18.7216 96.0639 18.5871 96.4048 18.3182C96.7457 18.0455 97.0033 17.6761 97.1776 17.2102C97.3556 16.7443 97.4446 16.2197 97.4446 15.6364C97.4446 15.0606 97.3575 14.5436 97.1832 14.0852C97.0128 13.6269 96.7552 13.2652 96.4105 13C96.0696 12.7348 95.6435 12.6023 95.1321 12.6023C94.6397 12.6023 94.223 12.7292 93.8821 12.983C93.545 13.2367 93.2893 13.5909 93.1151 14.0455C92.9408 14.5 92.8537 15.0303 92.8537 15.6364ZM105.138 11.2727V12.6364H100.371V11.2727H105.138ZM101.649 9.18182H103.348V17.4375C103.348 17.767 103.397 18.0152 103.496 18.1818C103.594 18.3447 103.721 18.4564 103.876 18.517C104.036 18.5739 104.208 18.6023 104.393 18.6023C104.53 18.6023 104.649 18.5928 104.751 18.5739C104.854 18.5549 104.933 18.5398 104.99 18.5284L105.297 19.9318C105.198 19.9697 105.058 20.0076 104.876 20.0455C104.695 20.0871 104.467 20.1098 104.195 20.1136C103.748 20.1212 103.331 20.0417 102.945 19.875C102.558 19.7083 102.246 19.4508 102.007 19.1023C101.768 18.7538 101.649 18.3163 101.649 17.7898V9.18182Z" fill="white"/>
<defs>
<linearGradient id="paint0_linear_119_72" x1="0" y1="14.5" x2="111" y2="14.5" gradientUnits="userSpaceOnUse">
<stop stop-color="#F7DF1E" stop-opacity="0.32"/>
<stop offset="1" stop-color="#999999" stop-opacity="0"/>
</linearGradient>
<linearGradient id="paint1_linear_119_72" x1="0" y1="14.5" x2="111" y2="14.5" gradientUnits="userSpaceOnUse">
<stop stop-color="#D0B900"/>
<stop offset="1" stop-color="white" stop-opacity="0.06"/>
</linearGradient>
<clipPath id="clip0_119_72">
<rect width="16" height="16" fill="white" transform="translate(5 6.5)"/>
</clipPath>
</defs>
</svg>
