<svg width="67" height="29" viewBox="0 0 67 29" fill="none" xmlns="http://www.w3.org/2000/svg">
<rect x="0.25" y="0.25" width="66.5" height="28.5" rx="14.25" fill="url(#paint0_linear_125_8)"/>
<rect x="0.25" y="0.25" width="66.5" height="28.5" rx="14.25" stroke="url(#paint1_linear_125_8)" stroke-width="0.5"/>
<path d="M15.15 14.7499L13.2 16.6999L11.2 14.7499L11.75 14.1999L12.8 15.2499V12.3999H13.55V15.2999L14.6 14.2499L15.15 14.7499ZM6.75 14.3499L8.1 15.6999L9.5 14.3499V16.5499H10.25V12.4999L8.1 14.6499L6 12.4999V16.5499H6.75V14.3499Z" fill="black"/>
<path d="M19.4 16.5L17.85 14.95L16.3 16.5L15.8 15.95L17.35 14.4L15.75 12.8L16.3 12.3L17.85 13.9L19.45 12.3L20 12.8L18.4 14.4L19.95 15.95L19.4 16.5Z" fill="#F9AC00"/>
<path d="M26.2784 8.36364H28.4091L32.1136 17.4091H32.25L35.9545 8.36364H38.0852V20H36.4148V11.5795H36.3068L32.875 19.983H31.4886L28.0568 11.5739H27.9489V20H26.2784V8.36364ZM44.4048 20H40.6378V8.36364H44.5241C45.6643 8.36364 46.6435 8.59659 47.4616 9.0625C48.2798 9.52462 48.9067 10.1894 49.3423 11.0568C49.7817 11.9205 50.0014 12.9564 50.0014 14.1648C50.0014 15.3769 49.7798 16.4186 49.3366 17.2898C48.8973 18.161 48.2609 18.8314 47.4276 19.3011C46.5942 19.767 45.5866 20 44.4048 20ZM42.3935 18.4659H44.3082C45.1946 18.4659 45.9313 18.2992 46.5185 17.9659C47.1056 17.6288 47.545 17.142 47.8366 16.5057C48.1283 15.8655 48.2741 15.0852 48.2741 14.1648C48.2741 13.2519 48.1283 12.4773 47.8366 11.8409C47.5488 11.2045 47.1188 10.7216 46.5469 10.392C45.9749 10.0625 45.2647 9.89773 44.4162 9.89773H42.3935V18.4659ZM53.0938 8.36364L55.8778 12.9148H55.9688L58.7528 8.36364H60.7869L57.1619 14.1818L60.8097 20H58.7642L55.9688 15.5114H55.8778L53.0824 20H51.0369L54.7472 14.1818L51.0597 8.36364H53.0938Z" fill="white"/>
<defs>
<linearGradient id="paint0_linear_125_8" x1="0" y1="14.5" x2="67" y2="14.5" gradientUnits="userSpaceOnUse">
<stop stop-color="#F7DF1E" stop-opacity="0.32"/>
<stop offset="1" stop-color="#999999" stop-opacity="0"/>
</linearGradient>
<linearGradient id="paint1_linear_125_8" x1="0" y1="14.5" x2="67" y2="14.5" gradientUnits="userSpaceOnUse">
<stop stop-color="#D0B900"/>
<stop offset="1" stop-color="white" stop-opacity="0.06"/>
</linearGradient>
</defs>
</svg>
