<svg width="78" height="29" viewBox="0 0 78 29" fill="none" xmlns="http://www.w3.org/2000/svg">
<rect x="0.25" y="0.25" width="77.5" height="28.5" rx="14.25" fill="url(#paint0_linear_118_7)"/>
<rect x="0.25" y="0.25" width="77.5" height="28.5" rx="14.25" stroke="url(#paint1_linear_118_7)" stroke-width="0.5"/>
<g clip-path="url(#clip0_118_7)">
<path d="M13.7822 20.4271L18.1733 17.6503C18.1895 17.6403 18.2108 17.6447 18.2208 17.661C18.2308 17.6772 18.2264 17.6985 18.2102 17.7085L13.8047 20.494C13.7991 20.4977 13.7929 20.4996 13.7866 20.4996L13.7822 20.4271Z" fill="url(#paint2_linear_118_7)"/>
<path d="M13.7866 20.4995C13.7828 20.4995 13.7784 20.4989 13.7747 20.4976L7.788 18.2664C7.78373 18.2649 7.77982 18.2625 7.77649 18.2594C7.77316 18.2563 7.77049 18.2526 7.76862 18.2485C7.76676 18.2443 7.76574 18.2399 7.76563 18.2353C7.76553 18.2308 7.76633 18.2263 7.768 18.222C7.77487 18.2039 7.79425 18.1952 7.81237 18.202L13.7834 20.427L13.7866 20.4995Z" fill="url(#paint3_linear_118_7)"/>
<path d="M20.0688 9.83187L19.3776 10.9762L16.6009 12.1568L16.4465 12.2224L13.9509 14.5561C13.9028 14.6042 13.8703 14.6729 13.8647 14.7111C13.8622 14.7242 13.8509 14.7186 13.8403 14.7179C13.8291 14.7173 13.8134 14.7217 13.8122 14.7079C13.8109 14.6579 13.8053 14.6023 13.7247 14.5523L12.4741 13.7423L11.5622 13.1511L8.99368 12.4924L6.84368 11.9411L5.48193 9.82562L5.50256 9.80187L5.50381 9.79999L10.6161 8.47124C10.6236 8.46874 10.6249 8.46999 10.628 8.47437L12.3716 11.0862L12.406 11.1374C12.4435 11.1924 12.4472 11.2262 12.4472 11.2506H12.4791V11.2449C12.4791 11.2424 12.4791 11.2393 12.4797 11.2362C12.4797 11.2343 12.4804 11.2324 12.4804 11.2299C12.481 11.2274 12.481 11.2249 12.4816 11.2224C12.4822 11.2199 12.4822 11.2174 12.4829 11.2143C12.4847 11.2056 12.4872 11.1956 12.4897 11.1856C12.4904 11.1824 12.4916 11.1793 12.4922 11.1768C12.4954 11.1668 12.4985 11.1562 12.5022 11.1462C12.5041 11.1424 12.5054 11.1381 12.5072 11.1343C12.5122 11.1218 12.5172 11.1106 12.5229 11.1006C12.5279 11.0906 12.5329 11.0824 12.5379 11.0756L14.1097 8.78937C14.1135 8.78374 14.1154 8.78124 14.1235 8.78249L20.0589 9.80374L20.0688 9.83187Z" fill="#E8B67F"/>
<path d="M12.4741 13.7417H12.4735L11.5623 13.1511L8.99365 12.4924L12.4472 11.2505L12.4566 11.2324V11.2505L12.4741 13.7417Z" fill="url(#paint4_linear_118_7)"/>
<path d="M12.4472 11.2506L8.99368 12.4918L8.68243 12.4118L6.84368 11.9399L5.48193 9.8244L5.50381 9.79877L10.6161 8.47002C10.6236 8.46752 10.6249 8.46877 10.628 8.47315L12.3716 11.085L12.406 11.1362C12.4435 11.1925 12.4472 11.2262 12.4472 11.2506Z" fill="url(#paint5_linear_118_7)"/>
<path d="M12.4594 11.3826L9.19395 12.5562L8.68457 12.4256L12.3738 11.0994L12.4082 11.1506C12.4457 11.2056 12.4494 11.2394 12.4494 11.2637H12.4588L12.4594 11.3826Z" fill="url(#paint6_linear_118_7)"/>
<path d="M6.89048 11.9524L6.84423 11.9405L5.48242 9.82502L5.50305 9.80127L6.89048 11.9524Z" fill="#D2A679"/>
<path d="M16.6009 12.1568L16.4465 12.2225L13.951 14.5562C13.9028 14.6043 13.8703 14.673 13.8647 14.7112C13.8622 14.7243 13.851 14.7187 13.8403 14.718C13.8291 14.7174 13.8135 14.7218 13.8122 14.708C13.811 14.658 13.8053 14.6024 13.7247 14.5524L12.4742 13.7418L12.4573 11.2513V11.2332L12.4804 11.2513L16.6009 12.1568Z" fill="url(#paint7_linear_118_7)"/>
<path d="M20.0688 9.83181L19.3776 10.9761L16.8502 12.0505L16.6014 12.1561L12.4797 11.2505C12.4772 11.2186 12.4991 11.1461 12.5228 11.0999C12.5278 11.0899 12.5328 11.0817 12.5378 11.0749L14.1097 8.78868C14.1134 8.78306 14.1153 8.78056 14.1234 8.78181L20.0588 9.80306L20.0688 9.83181Z" fill="url(#paint8_linear_118_7)"/>
<path d="M16.8502 12.0506L16.447 12.2219L16.3952 12.2719L12.4565 11.4012L12.4747 11.25H12.4797C12.4772 11.2181 12.499 11.1456 12.5228 11.0994L16.8502 12.0506Z" fill="url(#paint9_linear_118_7)"/>
<path opacity="0.75" d="M12.5659 11.2692V13.801L12.474 13.7416H12.4734L12.3528 13.6629V11.2842L12.4472 11.2505H12.479L12.5659 11.2692Z" fill="url(#paint10_linear_118_7)"/>
<path d="M13.7622 20.459L7.7705 18.2235C7.73675 18.2091 7.73175 18.1772 7.72988 18.1378C7.72988 18.1378 7.47238 13.0318 7.47175 13.0312C7.47113 13.0181 7.48737 13.01 7.48612 13.0018C7.48175 12.9825 7.44488 12.9093 7.433 12.9018L5 11.5193L5.02063 11.4725L11.5623 13.1512L13.7241 14.5518C13.8047 14.6018 13.8109 14.6574 13.8116 14.7074C13.8122 14.7211 13.8284 14.7168 13.8397 14.7174C13.8509 14.718 13.8616 14.7236 13.8641 14.7105C13.8697 14.6724 13.9022 14.6036 13.9503 14.5561L16.4458 12.2225L20.9712 10.2988L20.9987 10.337L18.5557 12.4838C18.5082 12.5313 18.4864 12.5894 18.4958 12.6131L18.2458 17.6173C18.242 17.6492 18.227 17.6586 18.1951 17.6805L13.8153 20.4528C13.7978 20.4641 13.7791 20.4671 13.7622 20.459Z" fill="#BF9064"/>
<path d="M13.8397 14.7173L13.7966 20.4614C13.785 20.4647 13.7726 20.4638 13.7616 20.4589L7.76994 18.224C7.73619 18.2096 7.73119 18.1771 7.72932 18.1384L7.47119 13.0318V13.0305C7.47119 13.0293 7.47119 13.028 7.47182 13.0268C7.47182 13.0255 7.47244 13.0249 7.47307 13.0243C7.47369 13.023 7.47432 13.0224 7.47494 13.0211C7.47557 13.0199 7.47619 13.0193 7.47682 13.018C7.47932 13.0143 7.48307 13.0105 7.48432 13.0074C7.48494 13.0068 7.48494 13.0061 7.48494 13.0055V13.0049L13.8123 14.7098C13.8148 14.7211 13.8297 14.7167 13.8397 14.7173Z" fill="#BD8F63"/>
<path opacity="0.54" d="M13.7971 20.4445V20.4607C13.7855 20.464 13.7731 20.4631 13.7621 20.4582L7.77041 18.2233C7.74666 18.2133 7.73729 18.1939 7.73291 18.1702L13.7971 20.4445Z" fill="url(#paint11_linear_118_7)"/>
<path d="M11.0879 16.9602L13.4078 17.719L13.4022 19.9813L11.1254 19.1451L11.0879 16.9602ZM12.2504 18.4802L12.256 19.5283L13.3796 19.941V18.8726L12.2504 18.4802ZM12.5823 18.8188L12.8094 19.1801L13.0318 18.9853L13.0706 19.0295L12.841 19.2305L13.0711 19.5966L13.0378 19.6176L12.811 19.2568L12.5897 19.4508L12.551 19.4066L12.7794 19.2064L12.549 18.8397L12.5823 18.8188ZM13.251 19.2258V19.3289L13.3103 19.3483V19.4645L13.251 19.4408V19.5345L13.121 19.337L13.251 19.2258ZM13.051 19.1001L13.0966 19.1145V19.5264L13.051 19.5101V19.1001ZM11.1335 18.092L11.1504 19.1239L12.2241 19.5164L12.2179 18.4708L11.1335 18.092ZM12.8123 19.322L12.9298 19.5114L12.6954 19.4264L12.8123 19.322ZM12.9935 19.1483V19.417L12.8716 19.2451L12.9935 19.1483ZM12.5285 18.9089L12.5735 18.9239V19.3351L12.5285 19.3195V18.9089ZM12.6297 19.0195L12.746 19.1989L12.6297 19.2883V19.0195ZM11.6585 18.5214L11.7028 18.5358L11.703 18.5621C11.8351 18.6153 11.9656 18.7478 12.0285 18.9539C11.9873 18.8845 11.951 18.8714 11.8866 18.8933C11.8629 18.8439 11.7929 18.8176 11.751 18.8439C11.7404 18.8236 11.7242 18.8068 11.7044 18.7954L11.7066 19.1876C11.7066 19.2239 11.6816 19.2564 11.6198 19.2439C11.5635 19.2301 11.5404 19.187 11.5466 19.1133L11.5779 19.1183C11.5779 19.1676 11.5816 19.1958 11.6191 19.2045C11.651 19.212 11.6654 19.2001 11.6654 19.1708L11.6613 18.7817C11.6435 18.7805 11.6271 18.7848 11.6154 18.7951C11.601 18.7589 11.5329 18.7101 11.4816 18.7464C11.4454 18.6889 11.3773 18.667 11.3391 18.7089C11.3878 18.5617 11.52 18.5101 11.6587 18.5473L11.6585 18.5214ZM12.3697 18.9045L12.4966 19.1045L12.371 19.2089L12.3735 19.1108L12.3122 19.0964V18.9826L12.3697 19.0039V18.9045ZM12.6916 18.9476L12.9291 19.0339L12.8103 19.1383L12.6916 18.9476ZM12.2485 17.3726L12.251 18.4414L13.3803 18.8351V17.7433L12.2485 17.3726ZM12.4591 18.2958L13.1341 18.5264V18.6608L12.4591 18.4283V18.2958ZM11.8779 18.5508C11.8823 18.5551 11.8823 18.602 11.8679 18.6126C11.8636 18.6146 11.859 18.6153 11.8543 18.6147C11.8497 18.6142 11.8453 18.6124 11.8416 18.6095C11.8329 18.6026 11.8279 18.5926 11.8316 18.5776C11.8354 18.5626 11.8729 18.5464 11.8779 18.5508ZM11.9404 18.4439C11.9454 18.4483 11.9454 18.4951 11.9304 18.5058C11.9261 18.5077 11.9215 18.5084 11.9168 18.5079C11.9122 18.5073 11.9078 18.5055 11.9041 18.5026C11.8954 18.4958 11.8904 18.4858 11.8941 18.4708C11.8979 18.4558 11.9354 18.4395 11.9404 18.4439ZM11.7654 18.4395C11.7704 18.4439 11.7704 18.4908 11.7554 18.5014C11.7511 18.5033 11.7465 18.504 11.7418 18.5035C11.7372 18.5029 11.7328 18.5011 11.7291 18.4983C11.7204 18.4914 11.7154 18.4814 11.7191 18.4664C11.7229 18.4514 11.7604 18.4351 11.7654 18.4395ZM11.5885 18.4139C11.5935 18.4183 11.5935 18.4651 11.5785 18.4758C11.5743 18.4777 11.5696 18.4784 11.565 18.4779C11.5603 18.4773 11.5559 18.4755 11.5523 18.4726C11.5435 18.4658 11.5385 18.4558 11.5423 18.4408C11.546 18.4258 11.5835 18.4095 11.5885 18.4139ZM12.9803 17.7115L13.1441 18.0346L13.0322 17.9965V18.4646L12.9203 18.4258L12.921 17.9615L12.8097 17.9252L12.9803 17.7115ZM11.1123 17.0002L11.1316 18.0546L12.2185 18.4283L12.2091 17.3602L11.1123 17.0002ZM12.611 17.5883L12.7748 17.9115L12.6629 17.8733V18.3415L12.551 18.3027L12.5523 17.8383L12.4404 17.8021L12.611 17.5883ZM11.3554 17.2121L11.4441 17.2415L11.4854 17.3908L11.4391 17.3877L11.571 17.7065L11.5029 17.444L11.5416 17.4433L11.5023 17.2602L11.9604 17.4115V17.6633C11.9604 17.759 11.8566 17.8796 11.7104 17.8196L11.711 18.0727L11.921 18.2077L11.4129 18.0315L11.6173 18.0415L11.6135 17.7908C11.4685 17.7477 11.3635 17.5733 11.3635 17.4671L11.3554 17.2121Z" fill="#322214"/>
<path d="M13.8396 14.7172C13.8146 14.7178 13.7959 14.751 13.7952 14.781L13.7896 14.7835L7.47112 13.031C7.4705 13.0191 7.48425 13.0116 7.4855 13.0041C7.48613 13.0035 7.48613 13.0028 7.4855 13.0022C7.48113 12.9828 7.44425 12.9097 7.43237 12.9022L5 11.5193L5.02063 11.4724L11.5616 13.1505H11.5623L13.7241 14.551C13.8047 14.6017 13.8109 14.6567 13.8116 14.7067C13.8116 14.7073 13.8116 14.7085 13.8122 14.7092C13.8147 14.721 13.8297 14.7167 13.8397 14.7173" fill="url(#paint12_linear_118_7)"/>
<path d="M18.5564 12.483C18.5089 12.5305 18.487 12.5886 18.4964 12.6123L13.8946 14.7898L13.8852 14.7823C13.8846 14.746 13.8615 14.7217 13.844 14.7179C13.8534 14.7192 13.8621 14.7223 13.8646 14.7104C13.8659 14.7029 13.8677 14.6942 13.8709 14.6848C13.8734 14.6767 13.8771 14.6679 13.8815 14.6585C13.8946 14.6285 13.9146 14.596 13.9402 14.5673C13.944 14.5635 13.9477 14.5592 13.9515 14.5554L16.4471 12.2217L20.9725 10.2981L21 10.3362L18.5564 12.483Z" fill="#CD9C6B"/>
<path d="M10.9999 15.2898C11.0067 15.2917 11.0092 15.2923 11.0092 15.2867L10.9855 14.0155C10.9836 13.9724 10.973 13.8874 10.9211 13.853L8.61687 12.4531L7.53687 12.1743L9.87868 13.5737C9.93743 13.6124 9.94243 13.6849 9.94493 13.7387L9.97868 14.9748C9.97868 14.9811 9.97993 14.9823 9.9843 14.9842L10.9999 15.2898Z" fill="url(#paint13_linear_118_7)"/>
<path d="M13.8395 14.7173C13.8139 14.7179 13.7952 14.7529 13.7952 14.7835C13.7945 14.786 13.7902 14.7854 13.7895 14.7835C13.7845 14.7154 13.7564 14.6391 13.7195 14.6123L11.5403 13.2073L11.5615 13.1504H11.5622L13.724 14.551C13.8046 14.6016 13.8108 14.6566 13.8115 14.7066C13.8115 14.7073 13.8115 14.7085 13.8121 14.7091C13.8146 14.721 13.8295 14.7166 13.8395 14.7173Z" fill="#D4A271"/>
<path d="M11.5616 13.1512L11.5404 13.2075L5 11.5194L5.02063 11.4731L11.5616 13.1512Z" fill="#DEB37E"/>
<path d="M18.4969 12.6124L18.2469 17.6166C18.2432 17.6484 18.2282 17.6578 18.1963 17.6797L13.8165 20.4521C13.8102 20.4564 13.8034 20.4589 13.7971 20.4608L13.8402 14.7167C13.8515 14.7173 13.8621 14.7229 13.8646 14.7098C13.8646 14.7079 13.8652 14.7067 13.8652 14.7048L18.4957 12.6067C18.4957 12.6098 18.4963 12.6111 18.4969 12.6124Z" fill="#DBAD77"/>
<path opacity="0.54" d="M18.2469 17.6147V17.6172C18.2432 17.6491 18.2282 17.6585 18.1963 17.6804L13.8165 20.4527C13.8102 20.4571 13.8034 20.4596 13.7971 20.4615V20.4452L18.2469 17.6147Z" fill="url(#paint14_linear_118_7)"/>
<path d="M18.1651 15.4373L18.0651 17.4747L16.6089 18.3816L16.6839 16.2609L18.1651 15.4373ZM17.3864 16.9123L16.6626 17.3378L16.6283 18.3409L17.3489 17.8928L17.3864 16.9123ZM17.0408 17.3428L17.0395 17.3766C17.1259 17.3334 17.2076 17.3634 17.242 17.5066C17.2183 17.4734 17.1751 17.4866 17.1464 17.5541C17.1333 17.5259 17.0664 17.5491 17.0564 17.6078C17.0511 17.5983 17.0415 17.5948 17.0305 17.596L17.0146 17.9828C17.0133 18.0159 17.0114 18.0516 16.9696 18.0772C16.9502 18.0859 16.8989 18.0928 16.9058 18.0209L16.9302 18.0022C16.9283 18.0478 16.9402 18.0616 16.9652 18.0466C16.9952 18.0284 16.9896 17.9997 16.9908 17.9728L17.0043 17.6063C16.9946 17.6127 16.9862 17.6209 16.9798 17.6305C16.9733 17.6401 16.9687 17.6508 16.9664 17.6622C16.9589 17.6397 16.8864 17.6534 16.8777 17.7178C16.8571 17.6903 16.8008 17.7172 16.7796 17.7866C16.8187 17.6064 16.9157 17.4568 17.0123 17.3924L17.0133 17.3628L17.0408 17.3428ZM18.097 16.4922L17.407 16.9003L17.3689 17.8834L18.0514 17.4541L18.097 16.4922ZM17.8839 16.8234L17.9039 16.8422L17.7535 17.1833L17.8776 17.3547L17.8576 17.3972L17.7339 17.2278L17.5851 17.5653L17.5645 17.5466L17.716 17.2034L17.5876 17.0278L17.6101 16.9853L17.7358 17.1588L17.8839 16.8234ZM17.4639 17.2153L17.542 17.3103L17.4589 17.4891V17.4103L17.4239 17.4316L17.4258 17.3297L17.4608 17.3091L17.4639 17.2153ZM17.5989 17.0916L17.5826 17.4684L17.5545 17.4872L17.5701 17.1116L17.5989 17.0916ZM17.7308 17.2884L17.7976 17.3766L17.6539 17.4641L17.7308 17.2884ZM16.9651 17.3159C16.9683 17.3159 16.9664 17.3591 16.9558 17.3803C16.952 17.3878 16.9451 17.3959 16.9395 17.3966C16.9339 17.3972 16.9314 17.3909 16.9345 17.3747C16.9376 17.3584 16.962 17.3159 16.9651 17.3159ZM17.6301 17.1428L17.6964 17.2247L17.6189 17.3778L17.6301 17.1428ZM17.1551 17.2378C17.1576 17.2384 17.1558 17.2816 17.1458 17.3022C17.142 17.3097 17.1351 17.3178 17.1295 17.3184C17.1239 17.3191 17.1214 17.3128 17.1245 17.2966C17.1276 17.2803 17.152 17.2378 17.1551 17.2378ZM17.4326 15.8728L16.7014 16.2828L16.6633 17.3059L17.3889 16.8784L17.4326 15.8728ZM17.9145 16.8997L17.897 17.2759L17.872 17.2922L17.8889 16.9166L17.9145 16.8997ZM17.0864 17.2097C17.0895 17.2097 17.0876 17.2528 17.077 17.2741C17.0733 17.2816 17.0664 17.2897 17.0608 17.2903C17.0551 17.2909 17.0526 17.2847 17.0558 17.2684C17.0589 17.2522 17.0833 17.2097 17.0864 17.2097ZM17.8501 17.0091L17.8401 17.2491L17.7751 17.1716L17.8501 17.0091ZM18.0051 16.8947L18.0014 16.9872L18.0376 16.9672L18.0333 17.0697L17.9983 17.0903L17.997 17.1747L17.9214 17.0841L18.0051 16.8947ZM17.2033 17.0859C17.2064 17.0859 17.2045 17.1291 17.1939 17.1503C17.1901 17.1578 17.1833 17.1659 17.1776 17.1666C17.172 17.1672 17.1695 17.1609 17.1726 17.1447C17.1758 17.1284 17.2001 17.0859 17.2033 17.0859ZM17.8145 16.9409L17.737 17.1184L17.6701 17.0278L17.8145 16.9409ZM17.2626 16.0903L17.2533 16.3478C17.2495 16.4353 17.1795 16.5941 17.0751 16.6603L17.0639 16.9034L17.2033 16.8734L16.8639 17.0697L17.0051 16.9353L17.0126 16.6966C16.922 16.7484 16.8495 16.6522 16.8539 16.5547L16.862 16.3184L16.9233 16.2853L16.9433 16.3991L16.9101 16.4259L16.9833 16.6378L16.9551 16.4447L16.9801 16.4159L16.9608 16.2641L17.2626 16.0903ZM18.1501 15.4741L17.4501 15.8654L17.4064 16.871L18.1001 16.456L18.1501 15.4741ZM17.9676 16.341L17.9589 16.4604L17.5489 16.7029L17.5545 16.5823L17.9676 16.341ZM17.6776 15.8254L17.7683 16.0166L17.7001 16.0548L17.6795 16.4841L17.6145 16.5216L17.627 16.0923L17.5614 16.1316L17.6776 15.8254ZM17.9051 15.6991L17.9933 15.8873L17.9208 15.9279L17.9058 16.3541L17.8364 16.3929L17.8583 15.9635L17.7901 16.0023L17.9051 15.6991Z" fill="#322214"/>
<path d="M16.4832 12.2712L14.0089 14.5711C13.9389 14.638 13.8926 14.738 13.8945 14.7898C13.8933 14.7923 13.887 14.7942 13.8845 14.7898C13.8876 14.7498 13.862 14.7223 13.8433 14.718C13.8526 14.7192 13.8614 14.7223 13.8639 14.7105C13.8651 14.703 13.867 14.6942 13.8701 14.6848C13.8726 14.6767 13.8764 14.668 13.8808 14.6586C13.8958 14.6248 13.9201 14.5861 13.9501 14.5561L16.4457 12.2224L16.4832 12.2712Z" fill="#D7AA77"/>
<path d="M15.9377 15.0611C15.9377 15.068 15.9409 15.0711 15.9452 15.0692L16.6884 14.688C16.6896 14.6873 16.6902 14.6861 16.6909 14.6836L16.7321 13.4655C16.7334 13.3987 16.7709 13.3324 16.8221 13.2868L19.2901 11.0688L18.5388 11.3907L16.0583 13.6381C15.9946 13.7006 15.9727 13.7743 15.9714 13.8368L15.9377 15.0611Z" fill="url(#paint15_linear_118_7)"/>
<path d="M16.4834 12.271L20.9995 10.3361L20.972 10.2986L16.4465 12.2216L16.4834 12.271Z" fill="#F8CE93"/>
</g>
<path d="M26.2784 20V8.36364H30.4261C31.3314 8.36364 32.0814 8.52841 32.6761 8.85795C33.2708 9.1875 33.7159 9.63826 34.0114 10.2102C34.3068 10.7784 34.4545 11.4186 34.4545 12.1307C34.4545 12.8466 34.3049 13.4905 34.0057 14.0625C33.7102 14.6307 33.2633 15.0814 32.6648 15.4148C32.0701 15.7443 31.322 15.9091 30.4205 15.9091H27.5682V14.4205H30.2614C30.8333 14.4205 31.2973 14.322 31.6534 14.125C32.0095 13.9242 32.2708 13.6515 32.4375 13.3068C32.6042 12.9621 32.6875 12.5701 32.6875 12.1307C32.6875 11.6913 32.6042 11.3011 32.4375 10.9602C32.2708 10.6193 32.0076 10.3523 31.6477 10.1591C31.2917 9.96591 30.822 9.86932 30.2386 9.86932H28.0341V20H26.2784ZM38.8381 20.1932C38.285 20.1932 37.785 20.0909 37.3381 19.8864C36.8911 19.678 36.5369 19.3769 36.2756 18.983C36.018 18.589 35.8892 18.1061 35.8892 17.5341C35.8892 17.0417 35.9839 16.6364 36.1733 16.3182C36.3627 16 36.6184 15.7481 36.9403 15.5625C37.2623 15.3769 37.6222 15.2367 38.0199 15.142C38.4176 15.0473 38.8229 14.9754 39.2358 14.9261C39.7585 14.8655 40.1828 14.8163 40.5085 14.7784C40.8343 14.7367 41.071 14.6705 41.2188 14.5795C41.3665 14.4886 41.4403 14.3409 41.4403 14.1364V14.0966C41.4403 13.6004 41.3002 13.2159 41.0199 12.9432C40.7434 12.6705 40.3305 12.5341 39.7812 12.5341C39.2093 12.5341 38.7585 12.661 38.429 12.9148C38.1032 13.1648 37.8778 13.4432 37.7528 13.75L36.1562 13.3864C36.3456 12.8561 36.6222 12.428 36.9858 12.1023C37.3532 11.7727 37.7756 11.5341 38.2528 11.3864C38.7301 11.2348 39.232 11.1591 39.7585 11.1591C40.107 11.1591 40.4763 11.2008 40.8665 11.2841C41.2604 11.3636 41.6278 11.5114 41.9688 11.7273C42.3134 11.9432 42.5956 12.2519 42.8153 12.6534C43.035 13.0511 43.1449 13.5682 43.1449 14.2045V20H41.4858V18.8068H41.4176C41.3078 19.0265 41.143 19.2424 40.9233 19.4545C40.7036 19.6667 40.4214 19.8428 40.0767 19.983C39.732 20.1231 39.3191 20.1932 38.8381 20.1932ZM39.2074 18.8295C39.6771 18.8295 40.0786 18.7367 40.4119 18.5511C40.7491 18.3655 41.0047 18.1231 41.179 17.8239C41.357 17.5208 41.446 17.197 41.446 16.8523V15.7273C41.3854 15.7879 41.268 15.8447 41.0938 15.8977C40.9233 15.947 40.7282 15.9905 40.5085 16.0284C40.2888 16.0625 40.0748 16.0947 39.8665 16.125C39.6581 16.1515 39.4839 16.1742 39.3438 16.1932C39.0142 16.2348 38.7131 16.3049 38.4403 16.4034C38.1714 16.5019 37.9555 16.6439 37.7926 16.8295C37.6335 17.0114 37.554 17.2538 37.554 17.5568C37.554 17.9773 37.7093 18.2955 38.0199 18.5114C38.3305 18.7235 38.7263 18.8295 39.2074 18.8295ZM45.4077 20V11.2727H47.0497V12.6591H47.1406C47.2997 12.1894 47.58 11.8201 47.9815 11.5511C48.3868 11.2784 48.8452 11.142 49.3565 11.142C49.4626 11.142 49.5876 11.1458 49.7315 11.1534C49.8793 11.161 49.9948 11.1705 50.0781 11.1818V12.8068C50.0099 12.7879 49.8887 12.767 49.7145 12.7443C49.5402 12.7178 49.366 12.7045 49.1918 12.7045C48.7902 12.7045 48.4323 12.7898 48.1179 12.9602C47.8073 13.1269 47.5611 13.3598 47.3793 13.6591C47.1974 13.9545 47.1065 14.2917 47.1065 14.6705V20H45.4077ZM54.9119 20.1761C54.0672 20.1761 53.34 19.9848 52.7301 19.6023C52.1241 19.2159 51.6581 18.6837 51.3324 18.0057C51.0066 17.3277 50.8438 16.5511 50.8438 15.6761C50.8438 14.7898 51.0104 14.0076 51.3438 13.3295C51.6771 12.6477 52.1468 12.1155 52.7528 11.733C53.3589 11.3504 54.0729 11.1591 54.8949 11.1591C55.5578 11.1591 56.1487 11.2822 56.6676 11.5284C57.1866 11.7708 57.6051 12.1117 57.9233 12.5511C58.2453 12.9905 58.4366 13.5038 58.4972 14.0909H56.8438C56.7528 13.6818 56.5445 13.3295 56.2188 13.0341C55.8968 12.7386 55.465 12.5909 54.9233 12.5909C54.4498 12.5909 54.035 12.7159 53.679 12.9659C53.3267 13.2121 53.0521 13.5644 52.8551 14.0227C52.6581 14.4773 52.5597 15.0152 52.5597 15.6364C52.5597 16.2727 52.6563 16.822 52.8494 17.2841C53.0426 17.7462 53.3153 18.1042 53.6676 18.358C54.0237 18.6117 54.4422 18.7386 54.9233 18.7386C55.2453 18.7386 55.5369 18.6799 55.7983 18.5625C56.0634 18.4413 56.285 18.2689 56.4631 18.0455C56.6449 17.822 56.7718 17.553 56.8438 17.2386H58.4972C58.4366 17.803 58.2528 18.3068 57.946 18.75C57.6392 19.1932 57.2282 19.5417 56.7131 19.7955C56.2017 20.0492 55.6013 20.1761 54.9119 20.1761ZM64.0753 20.1761C63.2154 20.1761 62.4749 19.9924 61.8537 19.625C61.2363 19.2538 60.759 18.733 60.4219 18.0625C60.0885 17.3883 59.9219 16.5985 59.9219 15.6932C59.9219 14.7992 60.0885 14.0114 60.4219 13.3295C60.759 12.6477 61.2287 12.1155 61.831 11.733C62.437 11.3504 63.1454 11.1591 63.956 11.1591C64.4484 11.1591 64.9257 11.2405 65.3878 11.4034C65.8499 11.5663 66.2647 11.822 66.6321 12.1705C66.9995 12.5189 67.2893 12.9716 67.5014 13.5284C67.7135 14.0814 67.8196 14.7538 67.8196 15.5455V16.1477H60.8821V14.875H66.1548C66.1548 14.428 66.0639 14.0322 65.8821 13.6875C65.7003 13.339 65.4446 13.0644 65.1151 12.8636C64.7893 12.6629 64.4067 12.5625 63.9673 12.5625C63.4901 12.5625 63.0734 12.6799 62.7173 12.9148C62.3651 13.1458 62.0923 13.4489 61.8991 13.8239C61.7098 14.1951 61.6151 14.5985 61.6151 15.0341V16.0284C61.6151 16.6117 61.7173 17.108 61.9219 17.517C62.1302 17.9261 62.42 18.2386 62.7912 18.4545C63.1624 18.6667 63.5961 18.7727 64.0923 18.7727C64.4143 18.7727 64.7079 18.7273 64.973 18.6364C65.2382 18.5417 65.4673 18.4015 65.6605 18.2159C65.8537 18.0303 66.0014 17.8011 66.1037 17.5284L67.7116 17.8182C67.5829 18.2917 67.3518 18.7064 67.0185 19.0625C66.6889 19.4148 66.2741 19.6894 65.7741 19.8864C65.2779 20.0795 64.7116 20.1761 64.0753 20.1761ZM71.4034 8.36364V20H69.7045V8.36364H71.4034Z" fill="white"/>
<defs>
<linearGradient id="paint0_linear_118_7" x1="0" y1="14.5" x2="78" y2="14.5" gradientUnits="userSpaceOnUse">
<stop stop-color="#462400"/>
<stop offset="1" stop-color="#999999" stop-opacity="0"/>
</linearGradient>
<linearGradient id="paint1_linear_118_7" x1="0" y1="14.5" x2="78" y2="14.5" gradientUnits="userSpaceOnUse">
<stop stop-color="#322214"/>
<stop offset="1" stop-color="white" stop-opacity="0.06"/>
</linearGradient>
<linearGradient id="paint2_linear_118_7" x1="233.244" y1="158.955" x2="235.569" y2="162.627" gradientUnits="userSpaceOnUse">
<stop/>
<stop offset="1" stop-opacity="0"/>
</linearGradient>
<linearGradient id="paint3_linear_118_7" x1="309.698" y1="133.039" x2="309.396" y2="133.852" gradientUnits="userSpaceOnUse">
<stop/>
<stop offset="1" stop-opacity="0"/>
</linearGradient>
<linearGradient id="paint4_linear_118_7" x1="292.66" y1="128.03" x2="332.232" y2="144.433" gradientUnits="userSpaceOnUse">
<stop stop-color="#C37A44"/>
<stop offset="0.4442" stop-color="#BB713D"/>
<stop offset="0.6406" stop-color="#A05728"/>
<stop offset="1" stop-color="#964E23"/>
</linearGradient>
<linearGradient id="paint5_linear_118_7" x1="447.605" y1="255.161" x2="361.766" y2="134.675" gradientUnits="userSpaceOnUse">
<stop stop-color="#E9B880"/>
<stop offset="1" stop-color="#E4AF76"/>
</linearGradient>
<linearGradient id="paint6_linear_118_7" x1="200.803" y1="85.5704" x2="199.179" y2="81.0983" gradientUnits="userSpaceOnUse">
<stop stop-color="#C37A45" stop-opacity="0"/>
<stop offset="0.1334" stop-color="#C37A45"/>
<stop offset="0.2945" stop-color="#D08D55"/>
<stop offset="0.5021" stop-color="#DEA167"/>
<stop offset="0.6966" stop-color="#E8AF73"/>
<stop offset="0.8631" stop-color="#ECB477"/>
<stop offset="1" stop-color="#ECB477" stop-opacity="0"/>
</linearGradient>
<linearGradient id="paint7_linear_118_7" x1="208.96" y1="112.125" x2="130.464" y2="292.534" gradientUnits="userSpaceOnUse">
<stop offset="0.0881" stop-color="#AF6938"/>
<stop offset="0.4829" stop-color="#9A5227"/>
<stop offset="0.7792" stop-color="#8D4520"/>
</linearGradient>
<linearGradient id="paint8_linear_118_7" x1="324.755" y1="202.107" x2="370.109" y2="120.559" gradientUnits="userSpaceOnUse">
<stop offset="0.0327" stop-color="#E4AF76"/>
<stop offset="1" stop-color="#E9B880"/>
</linearGradient>
<linearGradient id="paint9_linear_118_7" x1="230.486" y1="70.2754" x2="231.023" y2="67.8918" gradientUnits="userSpaceOnUse">
<stop stop-color="#AF6A38" stop-opacity="0"/>
<stop offset="0.086" stop-color="#AF6A38"/>
<stop offset="0.1977" stop-color="#B87542"/>
<stop offset="0.5828" stop-color="#D59C66"/>
<stop offset="0.7771" stop-color="#E4AF76"/>
<stop offset="0.9239" stop-color="#E4AF76" stop-opacity="0"/>
</linearGradient>
<linearGradient id="paint10_linear_118_7" x1="14.1028" y1="138.791" x2="32.2252" y2="138.791" gradientUnits="userSpaceOnUse">
<stop stop-color="#743F1A" stop-opacity="0"/>
<stop offset="0.4929" stop-color="#743F1A" stop-opacity="0.887"/>
<stop offset="0.5" stop-color="#743F1A" stop-opacity="0.9"/>
<stop offset="0.5297" stop-color="#743F1A" stop-opacity="0.847"/>
<stop offset="1" stop-color="#743F1A" stop-opacity="0"/>
</linearGradient>
<linearGradient id="paint11_linear_118_7" x1="310.342" y1="133.003" x2="310.489" y2="132.614" gradientUnits="userSpaceOnUse">
<stop stop-color="#322214"/>
<stop offset="0.2397" stop-color="#322314" stop-opacity="0.989"/>
<stop offset="1" stop-color="#322214" stop-opacity="0"/>
</linearGradient>
<linearGradient id="paint12_linear_118_7" x1="459.183" y1="171.185" x2="454.207" y2="187.789" gradientUnits="userSpaceOnUse">
<stop offset="0.0476" stop-color="#C69866"/>
<stop offset="0.4156" stop-color="#BA8C5E"/>
<stop offset="0.8135" stop-color="#B5875B"/>
</linearGradient>
<linearGradient id="paint13_linear_118_7" x1="226.432" y1="158.179" x2="108.47" y2="27.1687" gradientUnits="userSpaceOnUse">
<stop stop-color="#845F35"/>
<stop offset="0.4311" stop-color="#91673C"/>
<stop offset="0.4407" stop-color="#976A40"/>
<stop offset="0.8737" stop-color="#986B40"/>
<stop offset="1" stop-color="#AB8157"/>
</linearGradient>
<linearGradient id="paint14_linear_118_7" x1="236.283" y1="159.964" x2="236.564" y2="160.406" gradientUnits="userSpaceOnUse">
<stop stop-color="#322214" stop-opacity="0"/>
<stop offset="1" stop-color="#322214"/>
</linearGradient>
<linearGradient id="paint15_linear_118_7" x1="168.991" y1="261.618" x2="191.744" y2="146.556" gradientUnits="userSpaceOnUse">
<stop stop-color="#A9794B"/>
<stop offset="0.3857" stop-color="#AE7F53"/>
<stop offset="0.4557" stop-color="#AC7D50"/>
<stop offset="0.6236" stop-color="#A9794B"/>
<stop offset="1" stop-color="#B2875D"/>
</linearGradient>
<clipPath id="clip0_118_7">
<rect width="16" height="12.0625" fill="white" transform="translate(5 8.46875)"/>
</clipPath>
</defs>
</svg>
