<svg width="74" height="29" viewBox="0 0 74 29" fill="none" xmlns="http://www.w3.org/2000/svg">
<rect x="0.25" y="0.25" width="73.5" height="28.5" rx="14.25" fill="url(#paint0_linear_119_40)"/>
<rect x="0.25" y="0.25" width="73.5" height="28.5" rx="14.25" stroke="url(#paint1_linear_119_40)" stroke-width="0.5"/>
<g clip-path="url(#clip0_119_40)">
<path d="M18.1552 11.989C17.9849 11.9306 17.8132 11.8765 17.6402 11.8267C17.6692 11.7079 17.696 11.5906 17.7198 11.4754C18.1096 9.5828 17.8547 8.05811 16.9842 7.55611C16.1495 7.07486 14.7844 7.57668 13.4058 8.77649C13.2699 8.89494 13.1371 9.01682 13.0074 9.14199C12.9205 9.05876 12.8322 8.97714 12.7423 8.89718C11.2974 7.6143 9.84919 7.07361 8.97956 7.57705C8.14562 8.0598 7.89869 9.49311 8.24969 11.2867C8.28461 11.4644 8.32404 11.6411 8.36794 11.8167C8.16294 11.875 7.96512 11.937 7.77581 12.003C6.08181 12.5936 5 13.5192 5 14.4792C5 15.4708 6.16138 16.4654 7.92575 17.0684C8.06879 17.1171 8.21303 17.1622 8.35831 17.2037C8.31114 17.3929 8.26925 17.5834 8.23269 17.7749C7.89806 19.5374 8.15937 20.9368 8.99106 21.4165C9.85006 21.9119 11.2918 21.4027 12.6956 20.1756C12.8095 20.0758 12.9208 19.9732 13.0295 19.8679C13.17 20.0034 13.3142 20.135 13.462 20.2625C14.8219 21.4326 16.1649 21.9051 16.9958 21.4241C17.8539 20.9273 18.1329 19.4239 17.7708 17.5949C17.7422 17.4516 17.7102 17.309 17.6748 17.1672C17.7761 17.1372 17.8754 17.1064 17.9723 17.0742C19.8066 16.4666 21 15.4841 21 14.4792C21 13.5157 19.8833 12.5839 18.1552 11.989ZM17.7574 16.4255C17.6698 16.4544 17.5802 16.4824 17.4886 16.5096C17.2861 15.8685 17.0129 15.1869 16.6784 14.4826C16.9976 13.7951 17.2603 13.1221 17.4571 12.4852C17.6208 12.5326 17.7796 12.5826 17.9327 12.6352C19.4134 13.145 20.3165 13.8986 20.3165 14.4792C20.3165 15.0977 19.3411 15.9007 17.7574 16.4255ZM17.1003 17.7276C17.2604 18.5364 17.2832 19.2676 17.1771 19.8393C17.0819 20.353 16.8902 20.6954 16.6532 20.8326C16.1491 21.1245 15.0707 20.7451 13.9078 19.7444C13.7703 19.6258 13.6362 19.5035 13.5055 19.3775C13.9564 18.8844 14.4069 18.3112 14.8467 17.6746C15.6202 17.606 16.3509 17.4937 17.0136 17.3406C17.0463 17.4723 17.0752 17.6013 17.1003 17.7276ZM10.4548 20.7822C9.96213 20.9561 9.56975 20.9611 9.33256 20.8244C8.82787 20.5333 8.61806 19.4096 8.90425 17.9024C8.93827 17.7243 8.97722 17.5471 9.02106 17.3712C9.67644 17.5162 10.4019 17.6204 11.1772 17.6833C11.6199 18.3062 12.0835 18.8788 12.5507 19.3802C12.4514 19.4762 12.3498 19.5699 12.2459 19.6609C11.6251 20.2036 11.003 20.5886 10.4548 20.7822ZM8.14687 16.4217C7.36669 16.155 6.72238 15.8084 6.28075 15.4302C5.88388 15.0904 5.68356 14.753 5.68356 14.4792C5.68356 13.8966 6.55212 13.1535 8.00081 12.6484C8.17663 12.5872 8.36063 12.5294 8.55156 12.4751C8.75181 13.1264 9.01444 13.8073 9.33138 14.4959C9.01031 15.1946 8.74394 15.8864 8.54175 16.5454C8.40913 16.5074 8.27747 16.4661 8.14687 16.4217ZM8.9205 11.1554C8.61981 9.61874 8.8195 8.45955 9.32206 8.16861C9.85731 7.85874 11.0409 8.30055 12.2885 9.4083C12.3699 9.4807 12.4499 9.55456 12.5286 9.62986C12.0637 10.1291 11.6044 10.6974 11.1656 11.3166C10.4131 11.3864 9.69275 11.4984 9.0305 11.6484C8.98969 11.4851 8.95301 11.3206 8.9205 11.1554ZM15.8222 12.8597C15.6658 12.5895 15.5035 12.3228 15.3356 12.0596C15.8461 12.1241 16.3352 12.2098 16.7946 12.3146C16.6567 12.7566 16.4848 13.2186 16.2825 13.6924C16.1346 13.4118 15.9812 13.1342 15.8222 12.8597ZM13.0077 10.1184C13.3229 10.46 13.6387 10.8413 13.9493 11.2551C13.3193 11.2253 12.6882 11.2252 12.0582 11.2547C12.3691 10.8447 12.6875 10.4639 13.0077 10.1184ZM10.1751 12.8644C10.0181 13.1366 9.86754 13.4125 9.72344 13.6917C9.52444 13.2197 9.35413 12.7555 9.21506 12.3072C9.67156 12.2051 10.1584 12.1216 10.6656 12.0582C10.4958 12.3231 10.3323 12.5919 10.1751 12.8644ZM10.6802 16.9488C10.1561 16.8903 9.662 16.8111 9.20563 16.7117C9.34688 16.2555 9.52094 15.7814 9.72425 15.2992C9.86892 15.5787 10.0202 15.8548 10.1778 16.1271C10.3399 16.4071 10.5078 16.6814 10.6802 16.9488ZM13.0266 18.8882C12.7026 18.5387 12.3794 18.152 12.0639 17.7361C12.3703 17.7481 12.6826 17.7542 13 17.7542C13.3261 17.7542 13.6485 17.7469 13.9658 17.7328C13.6543 18.1562 13.3397 18.5434 13.0266 18.8882ZM16.2889 15.2746C16.5028 15.7621 16.6831 16.2337 16.8262 16.6821C16.3623 16.788 15.8614 16.8732 15.3337 16.9366C15.5028 16.6685 15.6666 16.397 15.8249 16.1224C15.9858 15.8433 16.1406 15.5606 16.2889 15.2746ZM15.2328 15.7809C14.9904 16.2019 14.7344 16.615 14.4653 17.0194C13.9776 17.0539 13.4889 17.0711 13 17.0708C12.5021 17.0708 12.0177 17.0553 11.5514 17.0251C11.2751 16.6216 11.0143 16.2079 10.7693 15.7847C10.5255 15.3638 10.2978 14.9337 10.0867 14.4955C10.2973 14.0572 10.5243 13.6269 10.7673 13.2057L10.7673 13.2057C11.0101 12.7844 11.2689 12.3724 11.5431 11.9707C12.0189 11.9347 12.5068 11.9159 12.9999 11.9159C13.4953 11.9159 13.9839 11.9349 14.4596 11.9711C14.731 12.3722 14.9882 12.7828 15.2306 13.2021C15.4743 13.6224 15.7044 14.0505 15.9203 14.4858C15.7066 14.9255 15.4773 15.3575 15.2328 15.7809ZM16.6428 8.14818C17.1786 8.45718 17.3869 9.70324 17.0503 11.3373C17.0287 11.4416 17.0048 11.5477 16.9784 11.6554C16.3146 11.5022 15.5938 11.3882 14.8391 11.3174C14.3994 10.6914 13.9439 10.1222 13.4866 9.62943C13.6064 9.5139 13.7291 9.40137 13.8546 9.29193C15.0358 8.26399 16.1398 7.85811 16.6428 8.14818ZM13 13.0505C13.7891 13.0505 14.4288 13.6902 14.4288 14.4792C14.4288 15.2683 13.7891 15.908 13 15.908C12.2109 15.908 11.5712 15.2683 11.5712 14.4792C11.5712 13.6902 12.2109 13.0505 13 13.0505Z" fill="#00D8FF"/>
</g>
<path d="M26.2784 20V8.36364H30.4261C31.3277 8.36364 32.0758 8.51894 32.6705 8.82955C33.2689 9.14015 33.7159 9.57008 34.0114 10.1193C34.3068 10.6648 34.4545 11.2955 34.4545 12.0114C34.4545 12.7235 34.3049 13.3504 34.0057 13.892C33.7102 14.4299 33.2633 14.8485 32.6648 15.1477C32.0701 15.447 31.322 15.5966 30.4205 15.5966H27.2784V14.0852H30.2614C30.8295 14.0852 31.2917 14.0038 31.6477 13.8409C32.0076 13.678 32.2708 13.4413 32.4375 13.1307C32.6042 12.8201 32.6875 12.447 32.6875 12.0114C32.6875 11.572 32.6023 11.1913 32.4318 10.8693C32.2652 10.5473 32.0019 10.3011 31.642 10.1307C31.286 9.95644 30.8182 9.86932 30.2386 9.86932H28.0341V20H26.2784ZM32.0227 14.75L34.8977 20H32.8977L30.0795 14.75H32.0227ZM40.1065 20.1761C39.2467 20.1761 38.5062 19.9924 37.8849 19.625C37.2675 19.2538 36.7902 18.733 36.4531 18.0625C36.1198 17.3883 35.9531 16.5985 35.9531 15.6932C35.9531 14.7992 36.1198 14.0114 36.4531 13.3295C36.7902 12.6477 37.2599 12.1155 37.8622 11.733C38.4683 11.3504 39.1766 11.1591 39.9872 11.1591C40.4796 11.1591 40.9569 11.2405 41.419 11.4034C41.8812 11.5663 42.2959 11.822 42.6634 12.1705C43.0308 12.5189 43.3205 12.9716 43.5327 13.5284C43.7448 14.0814 43.8509 14.7538 43.8509 15.5455V16.1477H36.9134V14.875H42.1861C42.1861 14.428 42.0952 14.0322 41.9134 13.6875C41.7315 13.339 41.4759 13.0644 41.1463 12.8636C40.8205 12.6629 40.438 12.5625 39.9986 12.5625C39.5213 12.5625 39.1046 12.6799 38.7486 12.9148C38.3963 13.1458 38.1236 13.4489 37.9304 13.8239C37.741 14.1951 37.6463 14.5985 37.6463 15.0341V16.0284C37.6463 16.6117 37.7486 17.108 37.9531 17.517C38.1615 17.9261 38.4512 18.2386 38.8224 18.4545C39.1937 18.6667 39.6274 18.7727 40.1236 18.7727C40.4455 18.7727 40.7391 18.7273 41.0043 18.6364C41.2694 18.5417 41.4986 18.4015 41.6918 18.2159C41.8849 18.0303 42.0327 17.8011 42.1349 17.5284L43.7429 17.8182C43.6141 18.2917 43.383 18.7064 43.0497 19.0625C42.7202 19.4148 42.3054 19.6894 41.8054 19.8864C41.3092 20.0795 40.7429 20.1761 40.1065 20.1761ZM48.2756 20.1932C47.7225 20.1932 47.2225 20.0909 46.7756 19.8864C46.3286 19.678 45.9744 19.3769 45.7131 18.983C45.4555 18.589 45.3267 18.1061 45.3267 17.5341C45.3267 17.0417 45.4214 16.6364 45.6108 16.3182C45.8002 16 46.0559 15.7481 46.3778 15.5625C46.6998 15.3769 47.0597 15.2367 47.4574 15.142C47.8551 15.0473 48.2604 14.9754 48.6733 14.9261C49.196 14.8655 49.6203 14.8163 49.946 14.7784C50.2718 14.7367 50.5085 14.6705 50.6562 14.5795C50.804 14.4886 50.8778 14.3409 50.8778 14.1364V14.0966C50.8778 13.6004 50.7377 13.2159 50.4574 12.9432C50.1809 12.6705 49.768 12.5341 49.2188 12.5341C48.6468 12.5341 48.196 12.661 47.8665 12.9148C47.5407 13.1648 47.3153 13.4432 47.1903 13.75L45.5938 13.3864C45.7831 12.8561 46.0597 12.428 46.4233 12.1023C46.7907 11.7727 47.2131 11.5341 47.6903 11.3864C48.1676 11.2348 48.6695 11.1591 49.196 11.1591C49.5445 11.1591 49.9138 11.2008 50.304 11.2841C50.6979 11.3636 51.0653 11.5114 51.4062 11.7273C51.7509 11.9432 52.0331 12.2519 52.2528 12.6534C52.4725 13.0511 52.5824 13.5682 52.5824 14.2045V20H50.9233V18.8068H50.8551C50.7453 19.0265 50.5805 19.2424 50.3608 19.4545C50.1411 19.6667 49.8589 19.8428 49.5142 19.983C49.1695 20.1231 48.7566 20.1932 48.2756 20.1932ZM48.6449 18.8295C49.1146 18.8295 49.5161 18.7367 49.8494 18.5511C50.1866 18.3655 50.4422 18.1231 50.6165 17.8239C50.7945 17.5208 50.8835 17.197 50.8835 16.8523V15.7273C50.8229 15.7879 50.7055 15.8447 50.5312 15.8977C50.3608 15.947 50.1657 15.9905 49.946 16.0284C49.7263 16.0625 49.5123 16.0947 49.304 16.125C49.0956 16.1515 48.9214 16.1742 48.7812 16.1932C48.4517 16.2348 48.1506 16.3049 47.8778 16.4034C47.6089 16.5019 47.393 16.6439 47.2301 16.8295C47.071 17.0114 46.9915 17.2538 46.9915 17.5568C46.9915 17.9773 47.1468 18.2955 47.4574 18.5114C47.768 18.7235 48.1638 18.8295 48.6449 18.8295ZM58.5213 20.1761C57.6766 20.1761 56.9493 19.9848 56.3395 19.6023C55.7334 19.2159 55.2675 18.6837 54.9418 18.0057C54.616 17.3277 54.4531 16.5511 54.4531 15.6761C54.4531 14.7898 54.6198 14.0076 54.9531 13.3295C55.2865 12.6477 55.7562 12.1155 56.3622 11.733C56.9683 11.3504 57.6823 11.1591 58.5043 11.1591C59.1671 11.1591 59.758 11.2822 60.277 11.5284C60.7959 11.7708 61.2145 12.1117 61.5327 12.5511C61.8546 12.9905 62.0459 13.5038 62.1065 14.0909H60.4531C60.3622 13.6818 60.1539 13.3295 59.8281 13.0341C59.5062 12.7386 59.0743 12.5909 58.5327 12.5909C58.0592 12.5909 57.6444 12.7159 57.2884 12.9659C56.9361 13.2121 56.6615 13.5644 56.4645 14.0227C56.2675 14.4773 56.169 15.0152 56.169 15.6364C56.169 16.2727 56.2656 16.822 56.4588 17.2841C56.652 17.7462 56.9247 18.1042 57.277 18.358C57.633 18.6117 58.0516 18.7386 58.5327 18.7386C58.8546 18.7386 59.1463 18.6799 59.4077 18.5625C59.6728 18.4413 59.8944 18.2689 60.0724 18.0455C60.2543 17.822 60.3812 17.553 60.4531 17.2386H62.1065C62.0459 17.803 61.8622 18.3068 61.5554 18.75C61.2486 19.1932 60.8376 19.5417 60.3224 19.7955C59.8111 20.0492 59.2107 20.1761 58.5213 20.1761ZM67.9972 11.2727V12.6364H63.2301V11.2727H67.9972ZM64.5085 9.18182H66.2074V17.4375C66.2074 17.767 66.2566 18.0152 66.3551 18.1818C66.4536 18.3447 66.5805 18.4564 66.7358 18.517C66.8949 18.5739 67.0672 18.6023 67.2528 18.6023C67.3892 18.6023 67.5085 18.5928 67.6108 18.5739C67.7131 18.5549 67.7926 18.5398 67.8494 18.5284L68.1562 19.9318C68.0578 19.9697 67.9176 20.0076 67.7358 20.0455C67.554 20.0871 67.3267 20.1098 67.054 20.1136C66.607 20.1212 66.1903 20.0417 65.804 19.875C65.4176 19.7083 65.1051 19.4508 64.8665 19.1023C64.6278 18.7538 64.5085 18.3163 64.5085 17.7898V9.18182Z" fill="white"/>
<defs>
<linearGradient id="paint0_linear_119_40" x1="0" y1="14.5" x2="74" y2="14.5" gradientUnits="userSpaceOnUse">
<stop stop-color="#007ACC" stop-opacity="0.32"/>
<stop offset="1" stop-color="#999999" stop-opacity="0"/>
</linearGradient>
<linearGradient id="paint1_linear_119_40" x1="0" y1="14.5" x2="74" y2="14.5" gradientUnits="userSpaceOnUse">
<stop stop-color="#84C3FF"/>
<stop offset="1" stop-color="white" stop-opacity="0.06"/>
</linearGradient>
<clipPath id="clip0_119_40">
<rect width="16" height="14.25" fill="white" transform="translate(5 7.375)"/>
</clipPath>
</defs>
</svg>
