<svg width="94" height="29" viewBox="0 0 94 29" fill="none" xmlns="http://www.w3.org/2000/svg">
<rect x="0.25" y="0.25" width="93.5" height="28.5" rx="14.25" fill="url(#paint0_linear_123_151)"/>
<rect x="0.25" y="0.25" width="93.5" height="28.5" rx="14.25" stroke="url(#paint1_linear_123_151)" stroke-width="0.5"/>
<g clip-path="url(#clip0_123_151)">
<path d="M13.0005 9.7002C10.8671 9.7002 9.53424 10.7664 9.00049 12.8998C9.80024 11.8334 10.7339 11.4336 11.8002 11.7002C12.4091 11.8519 12.8442 12.2934 13.3261 12.7827C14.1104 13.5786 15.0181 14.4999 17.0005 14.4999C19.1337 14.4999 20.4667 13.4336 21.0005 11.2997C20.2005 12.3666 19.2672 12.7667 18.2006 12.4999C17.5919 12.3481 17.1572 11.9067 16.6747 11.4174C15.891 10.6216 14.9835 9.7002 13.0005 9.7002ZM9.00049 14.4999C6.86724 14.4999 5.53424 15.5663 5.00049 17.7002C5.8004 16.6333 6.73366 16.2332 7.80024 16.4999C8.40911 16.6518 8.84424 17.0932 9.32611 17.5824C10.1104 18.3783 11.0181 19.2997 13.0005 19.2997C15.1337 19.2997 16.4667 18.2334 17.0005 16.1001C16.2005 17.1665 15.2672 17.5664 14.2006 17.2997C13.5919 17.1479 13.1572 16.7064 12.6747 16.2172C11.891 15.4213 10.9835 14.4999 9.00049 14.4999Z" fill="#38BDF8"/>
</g>
<path d="M25.7045 9.875V8.36364H34.7102V9.875H31.0795V20H29.3295V9.875H25.7045ZM37.9162 20.1932C37.3632 20.1932 36.8632 20.0909 36.4162 19.8864C35.9692 19.678 35.6151 19.3769 35.3537 18.983C35.0961 18.589 34.9673 18.1061 34.9673 17.5341C34.9673 17.0417 35.062 16.6364 35.2514 16.3182C35.4408 16 35.6965 15.7481 36.0185 15.5625C36.3404 15.3769 36.7003 15.2367 37.098 15.142C37.4957 15.0473 37.901 14.9754 38.3139 14.9261C38.8366 14.8655 39.2609 14.8163 39.5866 14.7784C39.9124 14.7367 40.1491 14.6705 40.2969 14.5795C40.4446 14.4886 40.5185 14.3409 40.5185 14.1364V14.0966C40.5185 13.6004 40.3783 13.2159 40.098 12.9432C39.8215 12.6705 39.4086 12.5341 38.8594 12.5341C38.2874 12.5341 37.8366 12.661 37.5071 12.9148C37.1813 13.1648 36.956 13.4432 36.831 13.75L35.2344 13.3864C35.4238 12.8561 35.7003 12.428 36.0639 12.1023C36.4313 11.7727 36.8537 11.5341 37.331 11.3864C37.8082 11.2348 38.3101 11.1591 38.8366 11.1591C39.1851 11.1591 39.5545 11.2008 39.9446 11.2841C40.3385 11.3636 40.706 11.5114 41.0469 11.7273C41.3916 11.9432 41.6738 12.2519 41.8935 12.6534C42.1132 13.0511 42.223 13.5682 42.223 14.2045V20H40.5639V18.8068H40.4957C40.3859 19.0265 40.2211 19.2424 40.0014 19.4545C39.7817 19.6667 39.4995 19.8428 39.1548 19.983C38.8101 20.1231 38.3973 20.1932 37.9162 20.1932ZM38.2855 18.8295C38.7552 18.8295 39.1567 18.7367 39.4901 18.5511C39.8272 18.3655 40.0829 18.1231 40.2571 17.8239C40.4351 17.5208 40.5241 17.197 40.5241 16.8523V15.7273C40.4635 15.7879 40.3461 15.8447 40.1719 15.8977C40.0014 15.947 39.8063 15.9905 39.5866 16.0284C39.367 16.0625 39.1529 16.0947 38.9446 16.125C38.7363 16.1515 38.562 16.1742 38.4219 16.1932C38.0923 16.2348 37.7912 16.3049 37.5185 16.4034C37.2495 16.5019 37.0336 16.6439 36.8707 16.8295C36.7116 17.0114 36.6321 17.2538 36.6321 17.5568C36.6321 17.9773 36.7874 18.2955 37.098 18.5114C37.4086 18.7235 37.8045 18.8295 38.2855 18.8295ZM44.4858 20V11.2727H46.1847V20H44.4858ZM45.3438 9.92614C45.0483 9.92614 44.7945 9.82765 44.5824 9.63068C44.3741 9.42992 44.2699 9.19129 44.2699 8.91477C44.2699 8.63447 44.3741 8.39583 44.5824 8.19886C44.7945 7.99811 45.0483 7.89773 45.3438 7.89773C45.6392 7.89773 45.8911 7.99811 46.0994 8.19886C46.3116 8.39583 46.4176 8.63447 46.4176 8.91477C46.4176 9.19129 46.3116 9.42992 46.0994 9.63068C45.8911 9.82765 45.6392 9.92614 45.3438 9.92614ZM50.169 8.36364V20H48.4702V8.36364H50.169ZM54.3466 20L51.7784 11.2727H53.5341L55.2443 17.6818H55.3295L57.0455 11.2727H58.8011L60.5057 17.6534H60.5909L62.2898 11.2727H64.0455L61.483 20H59.75L57.9773 13.6989H57.8466L56.0739 20H54.3466ZM65.6577 20V11.2727H67.3565V20H65.6577ZM66.5156 9.92614C66.2202 9.92614 65.9664 9.82765 65.7543 9.63068C65.5459 9.42992 65.4418 9.19129 65.4418 8.91477C65.4418 8.63447 65.5459 8.39583 65.7543 8.19886C65.9664 7.99811 66.2202 7.89773 66.5156 7.89773C66.8111 7.89773 67.063 7.99811 67.2713 8.19886C67.4834 8.39583 67.5895 8.63447 67.5895 8.91477C67.5895 9.19129 67.4834 9.42992 67.2713 9.63068C67.063 9.82765 66.8111 9.92614 66.5156 9.92614ZM71.3409 14.8182V20H69.642V11.2727H71.2727V12.6932H71.3807C71.5814 12.2311 71.8958 11.8598 72.3239 11.5795C72.7557 11.2992 73.2992 11.1591 73.9545 11.1591C74.5492 11.1591 75.0701 11.2841 75.517 11.5341C75.964 11.7803 76.3106 12.1477 76.5568 12.6364C76.803 13.125 76.9261 13.7292 76.9261 14.4489V20H75.2273V14.6534C75.2273 14.0208 75.0625 13.5265 74.733 13.1705C74.4034 12.8106 73.9508 12.6307 73.375 12.6307C72.9811 12.6307 72.6307 12.7159 72.3239 12.8864C72.0208 13.0568 71.7803 13.3068 71.6023 13.6364C71.428 13.9621 71.3409 14.3561 71.3409 14.8182ZM82.4716 20.1705C81.767 20.1705 81.1383 19.9905 80.5852 19.6307C80.036 19.267 79.6042 18.75 79.2898 18.0795C78.9792 17.4053 78.8239 16.5966 78.8239 15.6534C78.8239 14.7102 78.9811 13.9034 79.2955 13.233C79.6136 12.5625 80.0492 12.0492 80.6023 11.6932C81.1553 11.3371 81.7822 11.1591 82.483 11.1591C83.0246 11.1591 83.4602 11.25 83.7898 11.4318C84.1231 11.6098 84.3807 11.8182 84.5625 12.0568C84.7481 12.2955 84.892 12.5057 84.9943 12.6875H85.0966V8.36364H86.7955V20H85.1364V18.642H84.9943C84.892 18.8277 84.7443 19.0398 84.5511 19.2784C84.3617 19.517 84.1004 19.7254 83.767 19.9034C83.4337 20.0814 83.0019 20.1705 82.4716 20.1705ZM82.8466 18.7216C83.3352 18.7216 83.7481 18.5928 84.0852 18.3352C84.4261 18.0739 84.6837 17.7121 84.858 17.25C85.036 16.7879 85.125 16.25 85.125 15.6364C85.125 15.0303 85.0379 14.5 84.8636 14.0455C84.6894 13.5909 84.4337 13.2367 84.0966 12.983C83.7595 12.7292 83.3428 12.6023 82.8466 12.6023C82.3352 12.6023 81.9091 12.7348 81.5682 13C81.2273 13.2652 80.9697 13.6269 80.7955 14.0852C80.625 14.5436 80.5398 15.0606 80.5398 15.6364C80.5398 16.2197 80.6269 16.7443 80.8011 17.2102C80.9754 17.6761 81.233 18.0455 81.5739 18.3182C81.9186 18.5871 82.3428 18.7216 82.8466 18.7216Z" fill="white"/>
<defs>
<linearGradient id="paint0_linear_123_151" x1="0" y1="14.5" x2="94" y2="14.5" gradientUnits="userSpaceOnUse">
<stop stop-color="#007ACC" stop-opacity="0.32"/>
<stop offset="1" stop-color="#999999" stop-opacity="0"/>
</linearGradient>
<linearGradient id="paint1_linear_123_151" x1="0" y1="14.5" x2="94" y2="14.5" gradientUnits="userSpaceOnUse">
<stop stop-color="#84C3FF"/>
<stop offset="1" stop-color="white" stop-opacity="0.06"/>
</linearGradient>
<clipPath id="clip0_123_151">
<rect width="16" height="16" fill="white" transform="translate(5 6.5)"/>
</clipPath>
</defs>
</svg>
