<svg width="114" height="29" viewBox="0 0 114 29" fill="none" xmlns="http://www.w3.org/2000/svg">
<rect x="0.25" y="0.25" width="113.5" height="28.5" rx="14.25" fill="url(#paint0_linear_118_6)"/>
<rect x="0.25" y="0.25" width="113.5" height="28.5" rx="14.25" stroke="url(#paint1_linear_118_6)" stroke-width="0.5"/>
<g clip-path="url(#clip0_118_6)">
<path d="M7.83374 12.375H20.2925V21.5837H7.83374V12.375Z" fill="white"/>
<path d="M5.1875 14.4888V22.3013H20.8125V6.67627H5.1875V14.4888ZM17.7788 13.8638C18.153 13.9506 18.4931 14.1463 18.7563 14.4263C18.9011 14.5771 19.027 14.745 19.1313 14.9263C19.1313 14.9463 18.4563 15.4025 18.045 15.6575C18.03 15.6675 17.97 15.6025 17.9038 15.5038C17.8287 15.3742 17.722 15.2658 17.5937 15.1887C17.4654 15.1115 17.3196 15.0681 17.17 15.0625C16.6963 15.03 16.3913 15.2788 16.3938 15.6875C16.39 15.7893 16.4132 15.8902 16.4613 15.98C16.565 16.1963 16.7588 16.325 17.3663 16.5875C18.485 17.0688 18.9637 17.3863 19.2612 17.8375C19.5937 18.3375 19.6675 19.145 19.4425 19.7425C19.1925 20.3925 18.58 20.8338 17.7137 20.98C17.3181 21.0254 16.9184 21.0212 16.5238 20.9675C15.919 20.8678 15.3619 20.5775 14.9338 20.1388C14.79 19.98 14.51 19.5663 14.5275 19.5363C14.573 19.5023 14.6211 19.4718 14.6713 19.445L15.25 19.125L15.6987 18.865L15.7925 19.0038C15.9508 19.2301 16.1521 19.4229 16.385 19.5713C16.885 19.8338 17.5675 19.7975 17.905 19.4938C18.0183 19.3825 18.089 19.2349 18.1048 19.0769C18.1205 18.9188 18.0804 18.7603 17.9913 18.6288C17.8663 18.455 17.6162 18.3088 16.9175 18.0038C16.1112 17.6563 15.7637 17.4413 15.4462 17.0988C15.2481 16.8727 15.1018 16.6061 15.0175 16.3175C14.9547 15.9878 14.9454 15.6502 14.99 15.3175C15.1562 14.5388 15.74 13.995 16.5925 13.8338C16.9873 13.785 17.3872 13.796 17.7788 13.8663V13.8638ZM14.1112 14.5188V15.1588H12.0825V20.9375H10.6438V15.1575H8.61V14.5325C8.60362 14.317 8.60863 14.1013 8.625 13.8863C8.635 13.875 9.875 13.875 11.375 13.875H14.1038L14.1112 14.5188Z" fill="#007ACC"/>
</g>
<path d="M25.7045 9.875V8.36364H34.7102V9.875H31.0795V20H29.3295V9.875H25.7045ZM36.6378 23.2727C36.384 23.2727 36.1529 23.2519 35.9446 23.2102C35.7363 23.1723 35.581 23.1307 35.4787 23.0852L35.8878 21.6932C36.1984 21.7765 36.4749 21.8125 36.7173 21.8011C36.9598 21.7898 37.1738 21.6989 37.3594 21.5284C37.5488 21.358 37.7154 21.0795 37.8594 20.6932L38.0696 20.1136L34.8764 11.2727H36.6946L38.9048 18.0455H38.9957L41.206 11.2727H43.0298L39.4332 21.1648C39.2666 21.6193 39.0545 22.0038 38.7969 22.3182C38.5393 22.6364 38.2325 22.875 37.8764 23.0341C37.5204 23.1932 37.1075 23.2727 36.6378 23.2727ZM44.6264 23.2727V11.2727H46.2855V12.6875H46.4276C46.526 12.5057 46.6681 12.2955 46.8537 12.0568C47.0393 11.8182 47.2969 11.6098 47.6264 11.4318C47.956 11.25 48.3916 11.1591 48.9332 11.1591C49.6378 11.1591 50.2666 11.3371 50.8196 11.6932C51.3726 12.0492 51.8063 12.5625 52.1207 13.233C52.4389 13.9034 52.598 14.7102 52.598 15.6534C52.598 16.5966 52.4408 17.4053 52.1264 18.0795C51.812 18.75 51.3802 19.267 50.831 19.6307C50.2817 19.9905 49.6548 20.1705 48.9503 20.1705C48.42 20.1705 47.9863 20.0814 47.6491 19.9034C47.3158 19.7254 47.0545 19.517 46.8651 19.2784C46.6757 19.0398 46.5298 18.8277 46.4276 18.642H46.3253V23.2727H44.6264ZM46.2912 15.6364C46.2912 16.25 46.3802 16.7879 46.5582 17.25C46.7363 17.7121 46.9938 18.0739 47.331 18.3352C47.6681 18.5928 48.081 18.7216 48.5696 18.7216C49.0772 18.7216 49.5014 18.5871 49.8423 18.3182C50.1832 18.0455 50.4408 17.6761 50.6151 17.2102C50.7931 16.7443 50.8821 16.2197 50.8821 15.6364C50.8821 15.0606 50.795 14.5436 50.6207 14.0852C50.4503 13.6269 50.1927 13.2652 49.848 13C49.5071 12.7348 49.081 12.6023 48.5696 12.6023C48.0772 12.6023 47.6605 12.7292 47.3196 12.983C46.9825 13.2367 46.7268 13.5909 46.5526 14.0455C46.3783 14.5 46.2912 15.0303 46.2912 15.6364ZM58.2628 20.1761C57.4029 20.1761 56.6624 19.9924 56.0412 19.625C55.4238 19.2538 54.9465 18.733 54.6094 18.0625C54.276 17.3883 54.1094 16.5985 54.1094 15.6932C54.1094 14.7992 54.276 14.0114 54.6094 13.3295C54.9465 12.6477 55.4162 12.1155 56.0185 11.733C56.6245 11.3504 57.3329 11.1591 58.1435 11.1591C58.6359 11.1591 59.1132 11.2405 59.5753 11.4034C60.0374 11.5663 60.4522 11.822 60.8196 12.1705C61.187 12.5189 61.4768 12.9716 61.6889 13.5284C61.901 14.0814 62.0071 14.7538 62.0071 15.5455V16.1477H55.0696V14.875H60.3423C60.3423 14.428 60.2514 14.0322 60.0696 13.6875C59.8878 13.339 59.6321 13.0644 59.3026 12.8636C58.9768 12.6629 58.5942 12.5625 58.1548 12.5625C57.6776 12.5625 57.2609 12.6799 56.9048 12.9148C56.5526 13.1458 56.2798 13.4489 56.0866 13.8239C55.8973 14.1951 55.8026 14.5985 55.8026 15.0341V16.0284C55.8026 16.6117 55.9048 17.108 56.1094 17.517C56.3177 17.9261 56.6075 18.2386 56.9787 18.4545C57.3499 18.6667 57.7836 18.7727 58.2798 18.7727C58.6018 18.7727 58.8954 18.7273 59.1605 18.6364C59.4257 18.5417 59.6548 18.4015 59.848 18.2159C60.0412 18.0303 60.1889 17.8011 60.2912 17.5284L61.8991 17.8182C61.7704 18.2917 61.5393 18.7064 61.206 19.0625C60.8764 19.4148 60.4616 19.6894 59.9616 19.8864C59.4654 20.0795 58.8991 20.1761 58.2628 20.1761ZM70.375 11.4205C70.3144 10.8826 70.0644 10.4659 69.625 10.1705C69.1856 9.87121 68.6326 9.72159 67.9659 9.72159C67.4886 9.72159 67.0758 9.79735 66.7273 9.94886C66.3788 10.0966 66.108 10.3011 65.9148 10.5625C65.7254 10.8201 65.6307 11.1136 65.6307 11.4432C65.6307 11.7197 65.6951 11.9583 65.8239 12.1591C65.9564 12.3598 66.1288 12.5284 66.3409 12.6648C66.5568 12.7973 66.7879 12.9091 67.0341 13C67.2803 13.0871 67.517 13.1591 67.7443 13.2159L68.8807 13.5114C69.2519 13.6023 69.6326 13.7254 70.0227 13.8807C70.4129 14.036 70.7746 14.2405 71.108 14.4943C71.4413 14.7481 71.7102 15.0625 71.9148 15.4375C72.1231 15.8125 72.2273 16.2614 72.2273 16.7841C72.2273 17.4432 72.0568 18.0284 71.7159 18.5398C71.3788 19.0511 70.8883 19.4545 70.2443 19.75C69.6042 20.0455 68.8295 20.1932 67.9205 20.1932C67.0492 20.1932 66.2955 20.0549 65.6591 19.7784C65.0227 19.5019 64.5246 19.1098 64.1648 18.6023C63.8049 18.0909 63.6061 17.4848 63.5682 16.7841H65.3295C65.3636 17.2045 65.5 17.5549 65.7386 17.8352C65.9811 18.1117 66.2898 18.3182 66.6648 18.4545C67.0436 18.5871 67.4583 18.6534 67.9091 18.6534C68.4053 18.6534 68.8466 18.5758 69.233 18.4205C69.6231 18.2614 69.9299 18.0417 70.1534 17.7614C70.3769 17.4773 70.4886 17.1458 70.4886 16.767C70.4886 16.4223 70.3902 16.1402 70.1932 15.9205C70 15.7008 69.7367 15.5189 69.4034 15.375C69.0739 15.2311 68.7008 15.1042 68.2841 14.9943L66.9091 14.6193C65.9773 14.3655 65.2386 13.9924 64.6932 13.5C64.1515 13.0076 63.8807 12.3561 63.8807 11.5455C63.8807 10.875 64.0625 10.2898 64.4261 9.78977C64.7898 9.28977 65.2822 8.90151 65.9034 8.625C66.5246 8.3447 67.2254 8.20455 68.0057 8.20455C68.7936 8.20455 69.4886 8.3428 70.0909 8.61932C70.697 8.89583 71.1742 9.27652 71.5227 9.76136C71.8712 10.2424 72.053 10.7955 72.0682 11.4205H70.375ZM77.8651 20.1761C77.0204 20.1761 76.2931 19.9848 75.6832 19.6023C75.0772 19.2159 74.6113 18.6837 74.2855 18.0057C73.9598 17.3277 73.7969 16.5511 73.7969 15.6761C73.7969 14.7898 73.9635 14.0076 74.2969 13.3295C74.6302 12.6477 75.0999 12.1155 75.706 11.733C76.312 11.3504 77.026 11.1591 77.848 11.1591C78.5109 11.1591 79.1018 11.2822 79.6207 11.5284C80.1397 11.7708 80.5582 12.1117 80.8764 12.5511C81.1984 12.9905 81.3897 13.5038 81.4503 14.0909H79.7969C79.706 13.6818 79.4976 13.3295 79.1719 13.0341C78.8499 12.7386 78.4181 12.5909 77.8764 12.5909C77.4029 12.5909 76.9882 12.7159 76.6321 12.9659C76.2798 13.2121 76.0052 13.5644 75.8082 14.0227C75.6113 14.4773 75.5128 15.0152 75.5128 15.6364C75.5128 16.2727 75.6094 16.822 75.8026 17.2841C75.9957 17.7462 76.2685 18.1042 76.6207 18.358C76.9768 18.6117 77.3954 18.7386 77.8764 18.7386C78.1984 18.7386 78.4901 18.6799 78.7514 18.5625C79.0166 18.4413 79.2382 18.2689 79.4162 18.0455C79.598 17.822 79.7249 17.553 79.7969 17.2386H81.4503C81.3897 17.803 81.206 18.3068 80.8991 18.75C80.5923 19.1932 80.1813 19.5417 79.6662 19.7955C79.1548 20.0492 78.5545 20.1761 77.8651 20.1761ZM83.267 20V11.2727H84.9091V12.6591H85C85.1591 12.1894 85.4394 11.8201 85.8409 11.5511C86.2462 11.2784 86.7045 11.142 87.2159 11.142C87.322 11.142 87.447 11.1458 87.5909 11.1534C87.7386 11.161 87.8542 11.1705 87.9375 11.1818V12.8068C87.8693 12.7879 87.7481 12.767 87.5739 12.7443C87.3996 12.7178 87.2254 12.7045 87.0511 12.7045C86.6496 12.7045 86.2917 12.7898 85.9773 12.9602C85.6667 13.1269 85.4205 13.3598 85.2386 13.6591C85.0568 13.9545 84.9659 14.2917 84.9659 14.6705V20H83.267ZM89.4077 20V11.2727H91.1065V20H89.4077ZM90.2656 9.92614C89.9702 9.92614 89.7164 9.82765 89.5043 9.63068C89.2959 9.42992 89.1918 9.19129 89.1918 8.91477C89.1918 8.63447 89.2959 8.39583 89.5043 8.19886C89.7164 7.99811 89.9702 7.89773 90.2656 7.89773C90.5611 7.89773 90.813 7.99811 91.0213 8.19886C91.2334 8.39583 91.3395 8.63447 91.3395 8.91477C91.3395 9.19129 91.2334 9.42992 91.0213 9.63068C90.813 9.82765 90.5611 9.92614 90.2656 9.92614ZM93.392 23.2727V11.2727H95.0511V12.6875H95.1932C95.2917 12.5057 95.4337 12.2955 95.6193 12.0568C95.8049 11.8182 96.0625 11.6098 96.392 11.4318C96.7216 11.25 97.1572 11.1591 97.6989 11.1591C98.4034 11.1591 99.0322 11.3371 99.5852 11.6932C100.138 12.0492 100.572 12.5625 100.886 13.233C101.205 13.9034 101.364 14.7102 101.364 15.6534C101.364 16.5966 101.206 17.4053 100.892 18.0795C100.578 18.75 100.146 19.267 99.5966 19.6307C99.0473 19.9905 98.4205 20.1705 97.7159 20.1705C97.1856 20.1705 96.7519 20.0814 96.4148 19.9034C96.0814 19.7254 95.8201 19.517 95.6307 19.2784C95.4413 19.0398 95.2955 18.8277 95.1932 18.642H95.0909V23.2727H93.392ZM95.0568 15.6364C95.0568 16.25 95.1458 16.7879 95.3239 17.25C95.5019 17.7121 95.7595 18.0739 96.0966 18.3352C96.4337 18.5928 96.8466 18.7216 97.3352 18.7216C97.8428 18.7216 98.267 18.5871 98.608 18.3182C98.9489 18.0455 99.2064 17.6761 99.3807 17.2102C99.5587 16.7443 99.6477 16.2197 99.6477 15.6364C99.6477 15.0606 99.5606 14.5436 99.3864 14.0852C99.2159 13.6269 98.9583 13.2652 98.6136 13C98.2727 12.7348 97.8466 12.6023 97.3352 12.6023C96.8428 12.6023 96.4261 12.7292 96.0852 12.983C95.7481 13.2367 95.4924 13.5909 95.3182 14.0455C95.1439 14.5 95.0568 15.0303 95.0568 15.6364ZM107.341 11.2727V12.6364H102.574V11.2727H107.341ZM103.852 9.18182H105.551V17.4375C105.551 17.767 105.6 18.0152 105.699 18.1818C105.797 18.3447 105.924 18.4564 106.08 18.517C106.239 18.5739 106.411 18.6023 106.597 18.6023C106.733 18.6023 106.852 18.5928 106.955 18.5739C107.057 18.5549 107.136 18.5398 107.193 18.5284L107.5 19.9318C107.402 19.9697 107.261 20.0076 107.08 20.0455C106.898 20.0871 106.67 20.1098 106.398 20.1136C105.951 20.1212 105.534 20.0417 105.148 19.875C104.761 19.7083 104.449 19.4508 104.21 19.1023C103.972 18.7538 103.852 18.3163 103.852 17.7898V9.18182Z" fill="white"/>
<defs>
<linearGradient id="paint0_linear_118_6" x1="0" y1="14.5" x2="114" y2="14.5" gradientUnits="userSpaceOnUse">
<stop stop-color="#007ACC" stop-opacity="0.32"/>
<stop offset="1" stop-color="#999999" stop-opacity="0"/>
</linearGradient>
<linearGradient id="paint1_linear_118_6" x1="0" y1="14.5" x2="114" y2="14.5" gradientUnits="userSpaceOnUse">
<stop stop-color="#84C3FF"/>
<stop offset="1" stop-color="white" stop-opacity="0.06"/>
</linearGradient>
<clipPath id="clip0_118_6">
<rect width="16" height="16" fill="white" transform="translate(5 6.5)"/>
</clipPath>
</defs>
</svg>
